<?xml version="1.0" encoding="utf-8"?>
<!-- Generator: Adobe Illustrator 27.5.0, SVG Export Plug-In . SVG Version: 6.00 Build 0)  -->
<svg version="1.1" xmlns="http://www.w3.org/2000/svg" xmlns:xlink="http://www.w3.org/1999/xlink" x="0px" y="0px"
	 viewBox="0 0 500 500" style="enable-background:new 0 0 500 500;" xml:space="preserve">
<g id="BACKGROUND">
</g>
<g id="OBJECTS">
	<ellipse style="opacity:0.33;fill:#7EA2A5;" cx="148.583" cy="456.525" rx="89.791" ry="17.142"/>
	<path style="opacity:0.33;fill:#B6D6DD;" d="M441.238,135.043c-8.637-9.18-17.746-18.242-28.696-24.653
		c-9.567-5.602-20.3-8.69-31.312-9.683c-48.789-4.401-94.398,28.703-143.198,17.262c-23.098-5.415-42.919-19.075-64.368-28.655
		c-15.04-10.626-32.213-18.294-51.022-17.708C101.748,72.257,81.463,82.224,67.53,97.69c-14.333,15.911-20.59,37.325-18.749,58.515
		c1.854,21.327,11.553,41.099,27.113,55.741c17.47,16.439,41.42,29.341,46.053,54.986c2.212,12.242,0.535,24.736,0.448,37.071
		c-0.09,12.611,2.222,24.719,7.504,36.214c10.434,22.708,29.635,41.927,50.993,54.595c20.66,12.254,44.211,17.425,68.123,15.553
		c54.455-4.262,99.92-40.43,137.342-77.381c19.436-19.191,37.523-39.951,53.432-62.167c14.33-20.011,26.663-42.456,28.949-67.385
		c1.086-11.852-0.113-24.002-4.411-35.151C459.406,155.522,450.502,144.89,441.238,135.043z"/>
	<g style="opacity:0.33;">
		<g>
			<path style="fill:none;stroke:#FFFFFF;stroke-miterlimit:10;stroke-dasharray:0.9996,0.9996;" d="M255.395,436.225
				c12.215-3.11,24.555-6.69,35.468-13.165c9.535-5.657,17.435-13.551,23.638-22.704c27.481-40.553,20.61-96.489,54.256-133.641
				c15.926-17.585,37.476-28.309,56.246-42.434c16.581-8.011,31.607-19.322,40.205-36.061c9.55-18.595,10.656-41.169,3.873-60.85
				c-6.977-20.246-22.682-36.092-42.112-44.744c-19.556-8.708-41.552-9.799-61.898-3.278c-22.844,7.322-45.732,22.026-70.411,13.658
				c-11.782-3.994-21.9-11.513-32.65-17.564c-10.99-6.187-22.702-10.029-35.317-10.975c-24.92-1.87-51.035,5.62-72.462,18.169
				c-20.727,12.14-36.658,30.239-46.603,52.065c-22.647,49.706-13.025,107,1.176,157.636c7.376,26.299,16.777,52.178,28.508,76.857
				c10.566,22.23,24.229,43.891,44.933,57.965c9.842,6.691,21.053,11.527,32.889,13.166
				C228.678,442.201,242.294,439.56,255.395,436.225z"/>
		</g>
	</g>
	<path style="opacity:0.33;fill:#B6D6DD;" d="M64.685,270.218c5.78,11.144,12.03,22.299,20.659,31.391
		c7.539,7.945,16.792,13.778,26.827,17.668c44.461,17.236,95.287-2.5,138.006,21.521c20.22,11.37,35.327,29.807,52.971,44.749
		c11.398,14.242,25.525,26.203,43.234,30.649c19.671,4.939,41.093,0.742,57.952-10.443c17.344-11.507,28.516-30.467,32.07-51.368
		c3.577-21.036-0.558-42.665-11.443-60.914c-12.221-20.488-31.373-39.296-29.316-65.232c0.982-12.381,5.657-23.969,8.809-35.827
		c3.222-12.124,4.077-24.402,2.006-36.882c-4.091-24.652-17.237-48.28-34.026-66.171c-16.241-17.307-36.944-28.562-59.738-33.129
		c-51.908-10.401-103.362,12.325-147.5,37.947c-22.925,13.308-44.98,28.485-65.365,45.646
		c-18.361,15.458-35.463,33.792-43.802,57.196c-3.964,11.126-5.869,23.149-4.63,35.034
		C52.817,245.652,58.486,258.266,64.685,270.218z"/>
	<g>
		<polygon style="fill:none;stroke:#FFFFFF;stroke-width:0.75;stroke-miterlimit:10;stroke-dasharray:1;" points="386.507,151.435 
			362.938,128.734 362.938,174.136 		"/>
		<polygon style="fill:none;stroke:#FFFFFF;stroke-width:0.75;stroke-miterlimit:10;stroke-dasharray:1;" points="424.314,151.435 
			400.745,128.734 400.745,174.136 		"/>
		<polygon style="fill:none;stroke:#FFFFFF;stroke-width:0.75;stroke-miterlimit:10;stroke-dasharray:1;" points="462.121,151.435 
			438.552,128.734 438.552,174.136 		"/>
	</g>
	<path style="fill:#013A51;" d="M84.772,231.751v1.539c0,0.594,0.924,0.595,0.924,0v-1.539
		C85.696,231.157,84.772,231.156,84.772,231.751z"/>
	<path style="fill:#E0B7A0;" d="M59.834,135.845c-0.594,0-0.595,0.924,0,0.924C60.428,136.768,60.429,135.845,59.834,135.845z"/>
	<g style="opacity:0.33;">
		<g>
			<path style="fill:none;stroke:#FFFFFF;stroke-miterlimit:10;stroke-dasharray:0.9996,0.9996;" d="M454.911,194.734
				c-6.539-10.776-13.565-21.533-22.943-30.081c-8.194-7.469-18.049-12.721-28.614-15.982
				c-46.807-14.449-98.303,8.447-143.658-12.892c-21.467-10.1-38.014-27.583-57.002-41.413
				c-12.501-13.521-27.705-24.592-46.225-27.93c-20.572-3.708-42.487,1.823-59.331,14.054
				c-17.329,12.582-27.901,32.228-30.506,53.337c-2.622,21.246,2.754,42.603,14.93,60.16c13.67,19.712,34.413,37.313,33.613,63.36
				c-0.382,12.434-4.62,24.307-7.271,36.354c-2.71,12.317-2.966,24.641-0.19,36.983c5.484,24.381,20.269,47.173,38.526,64.004
				c17.66,16.282,39.621,26.237,63.4,29.379c54.151,7.154,106.143-18.77,150.43-47.131c23.002-14.73,45.01-31.275,65.191-49.698
				c18.178-16.594,34.909-35.984,42.328-59.893c3.527-11.367,4.881-23.501,2.994-35.3
				C468.424,218.543,461.924,206.292,454.911,194.734z"/>
		</g>
	</g>
	<g style="opacity:0.33;">
		<g>
			<path style="fill:none;stroke:#FFFFFF;stroke-miterlimit:10;stroke-dasharray:1.0003,1.0003;" d="M376.342,368.558
				c5.897-10.297,11.529-20.973,14.059-32.467c2.21-10.043,1.664-20.354-0.954-30.284c-11.6-43.995-57.665-74.006-62.605-120.113
				c-2.338-21.824,4.185-43.242,6.32-64.867c5.197-16.33,6.904-33.644,0.272-49.923c-7.367-18.083-23.354-32.852-42.492-40.421
				c-19.689-7.787-41.976-6.864-61.434,1.076c-19.584,7.991-35.162,22.382-43.99,40.367c-9.912,20.192-14.384,44.997-37.156,56.71
				c-10.871,5.591-23.237,7.856-34.938,11.464c-11.964,3.688-22.675,9.327-31.847,17.381c-18.118,15.91-30.103,38.447-35.19,60.914
				c-4.921,21.733-2.206,43.88,7.292,64.239c21.629,46.364,70.547,75.334,117.607,97.034c24.442,11.27,49.932,20.892,76.097,28.174
				c23.568,6.559,48.794,10.644,73.125,5.198c11.567-2.589,22.678-7.267,31.84-14.358
				C362.832,390.568,370.017,379.603,376.342,368.558z"/>
		</g>
	</g>
	<g style="opacity:0.33;">
		<g>
			<path style="fill:none;stroke:#FFFFFF;stroke-miterlimit:10;stroke-dasharray:0.9997,0.9997;" d="M66.706,324.708
				c8.934,8.219,18.336,16.314,29.491,21.905c9.746,4.885,20.575,7.412,31.613,7.995c48.907,2.584,93.404-29.385,142.554-20.297
				c23.264,4.302,43.522,16.32,65.274,24.519c15.381,9.361,32.797,15.923,51.576,14.81c20.861-1.236,40.808-11.06,54.225-25.772
				c13.803-15.135,19.353-35.109,16.816-54.63c-2.553-19.647-12.897-37.62-28.93-50.674c-18.001-14.657-42.362-25.85-47.835-49.401
				c-2.613-11.243-1.347-22.837-1.665-34.236c-0.325-11.654-3.033-22.77-8.69-33.23c-11.175-20.662-30.997-37.835-52.759-48.89
				c-21.051-10.694-44.759-14.756-68.597-12.301c-54.286,5.591-98.538,40.387-134.725,75.661
				c-18.795,18.321-36.19,38.049-51.361,59.057c-13.665,18.923-25.254,40.034-26.719,63.135
				c-0.697,10.982,0.901,22.171,5.564,32.341C47.875,306.34,57.124,315.892,66.706,324.708z"/>
		</g>
	</g>
	<g>
		<path style="fill:#F2F0F0;" d="M420.629,258.574H189.86c-9.964,0-18.041-8.077-18.041-18.041V52.142
			c0-9.964,8.077-18.041,18.041-18.041h230.769c9.964,0,18.041,8.077,18.041,18.041v188.391
			C438.669,250.497,430.592,258.574,420.629,258.574z"/>
		<rect x="171.819" y="47.818" style="fill:#D3D3D3;" width="266.851" height="19.338"/>
		<rect x="171.819" y="61.284" style="fill:#004568;" width="266.851" height="19.338"/>
		
			<rect x="179.345" y="88.586" style="fill:none;stroke:#004568;stroke-width:0.5;stroke-miterlimit:10;" width="31.965" height="29.77"/>
		
			<rect x="215.88" y="88.586" style="fill:none;stroke:#004568;stroke-width:0.5;stroke-miterlimit:10;" width="31.965" height="29.77"/>
		
			<rect x="252.414" y="88.586" style="fill:none;stroke:#004568;stroke-width:0.5;stroke-miterlimit:10;" width="31.965" height="29.77"/>
		
			<rect x="288.948" y="88.586" style="fill:none;stroke:#004568;stroke-width:0.5;stroke-miterlimit:10;" width="31.965" height="29.77"/>
		
			<rect x="325.482" y="88.586" style="fill:none;stroke:#004568;stroke-width:0.5;stroke-miterlimit:10;" width="31.965" height="29.77"/>
		
			<rect x="362.017" y="88.586" style="fill:none;stroke:#004568;stroke-width:0.5;stroke-miterlimit:10;" width="31.965" height="29.77"/>
		
			<rect x="398.551" y="88.586" style="fill:none;stroke:#004568;stroke-width:0.5;stroke-miterlimit:10;" width="31.965" height="29.77"/>
		
			<rect x="179.345" y="121.2" style="fill:none;stroke:#004568;stroke-width:0.5;stroke-miterlimit:10;" width="31.965" height="29.77"/>
		<rect x="215.88" y="121.2" style="fill:#C95449;" width="31.965" height="29.77"/>
		
			<rect x="252.414" y="121.2" style="fill:none;stroke:#004568;stroke-width:0.5;stroke-miterlimit:10;" width="31.965" height="29.77"/>
		
			<rect x="288.948" y="121.2" style="fill:none;stroke:#004568;stroke-width:0.5;stroke-miterlimit:10;" width="31.965" height="29.77"/>
		
			<rect x="325.482" y="121.2" style="fill:none;stroke:#004568;stroke-width:0.5;stroke-miterlimit:10;" width="31.965" height="29.77"/>
		
			<rect x="362.017" y="121.2" style="fill:none;stroke:#004568;stroke-width:0.5;stroke-miterlimit:10;" width="31.965" height="29.77"/>
		
			<rect x="398.551" y="121.2" style="fill:none;stroke:#004568;stroke-width:0.5;stroke-miterlimit:10;" width="31.965" height="29.77"/>
		
			<rect x="179.345" y="153.814" style="fill:none;stroke:#004568;stroke-width:0.5;stroke-miterlimit:10;" width="31.965" height="29.77"/>
		
			<rect x="215.88" y="153.814" style="fill:none;stroke:#004568;stroke-width:0.5;stroke-miterlimit:10;" width="31.965" height="29.77"/>
		
			<rect x="252.414" y="153.814" style="fill:none;stroke:#004568;stroke-width:0.5;stroke-miterlimit:10;" width="31.965" height="29.77"/>
		
			<rect x="288.948" y="153.814" style="fill:none;stroke:#004568;stroke-width:0.5;stroke-miterlimit:10;" width="31.965" height="29.77"/>
		
			<rect x="325.482" y="153.814" style="fill:none;stroke:#004568;stroke-width:0.5;stroke-miterlimit:10;" width="31.965" height="29.77"/>
		
			<rect x="362.017" y="153.814" style="fill:none;stroke:#004568;stroke-width:0.5;stroke-miterlimit:10;" width="31.965" height="29.77"/>
		
			<rect x="398.551" y="153.814" style="fill:none;stroke:#004568;stroke-width:0.5;stroke-miterlimit:10;" width="31.965" height="29.77"/>
		
			<rect x="179.345" y="186.429" style="fill:none;stroke:#004568;stroke-width:0.5;stroke-miterlimit:10;" width="31.965" height="29.77"/>
		
			<rect x="215.88" y="186.429" style="fill:none;stroke:#004568;stroke-width:0.5;stroke-miterlimit:10;" width="31.965" height="29.77"/>
		
			<rect x="252.414" y="186.429" style="fill:none;stroke:#004568;stroke-width:0.5;stroke-miterlimit:10;" width="31.965" height="29.77"/>
		
			<rect x="288.948" y="186.429" style="fill:none;stroke:#004568;stroke-width:0.5;stroke-miterlimit:10;" width="31.965" height="29.77"/>
		
			<rect x="325.482" y="186.429" style="fill:none;stroke:#004568;stroke-width:0.5;stroke-miterlimit:10;" width="31.965" height="29.77"/>
		
			<rect x="362.017" y="186.429" style="fill:none;stroke:#004568;stroke-width:0.5;stroke-miterlimit:10;" width="31.965" height="29.77"/>
		
			<rect x="398.551" y="186.429" style="fill:none;stroke:#004568;stroke-width:0.5;stroke-miterlimit:10;" width="31.965" height="29.77"/>
		
			<text transform="matrix(1 0 0 1 281.0461 57.5057)" style="fill:#FFFFFF; font-family:'Quicksand-Bold'; font-size:6.7327px; letter-spacing:1;">CALENDAR</text>
		<g>
			
				<text transform="matrix(1 0 0 1 268.3029 74.8187)" style="fill:#FFFFFF; font-family:'Quicksand-Regular'; font-size:12.5037px; letter-spacing:2;">February</text>
		</g>
		
			<text transform="matrix(1 0 0 1 241.511 96.9408)" style="fill:#2380A5; font-family:'Quicksand-Bold'; font-size:7.6946px; letter-spacing:1;">1</text>
		
			<text transform="matrix(1 0 0 1 276.4387 96.9408)" style="fill:#2380A5; font-family:'Quicksand-Bold'; font-size:7.6946px; letter-spacing:1;">2</text>
		
			<text transform="matrix(1 0 0 1 312.9104 96.9408)" style="fill:#FFFFFF; font-family:'Quicksand-Bold'; font-size:7.6946px; letter-spacing:1;">3</text>
		
			<text transform="matrix(1 0 0 1 350.2131 96.9408)" style="fill:#FFFFFF; font-family:'Quicksand-Bold'; font-size:7.6946px; letter-spacing:1;">4</text>
		
			<text transform="matrix(1 0 0 1 386.6701 96.9408)" style="fill:#FFFFFF; font-family:'Quicksand-Bold'; font-size:7.6946px; letter-spacing:1;">5</text>
		
			<text transform="matrix(1 0 0 1 423.0764 96.9408)" style="fill:#FFFFFF; font-family:'Quicksand-Bold'; font-size:7.6946px; letter-spacing:1;">6</text>
		
			<text transform="matrix(1 0 0 1 240.3762 129.9632)" style="fill:#FFFFFF; font-family:'Quicksand-Bold'; font-size:7.6946px; letter-spacing:1;">8</text>
		
			<text transform="matrix(1 0 0 1 203.3508 129.9632)" style="fill:#2380A5; font-family:'Quicksand-Bold'; font-size:7.6946px; letter-spacing:1;">7</text>
		
			<text transform="matrix(1 0 0 1 276.2385 129.9632)" style="fill:#2380A5; font-family:'Quicksand-Bold'; font-size:7.6946px; letter-spacing:1;">9</text>
		
			<text transform="matrix(1 0 0 1 310.467 129.9632)" style="fill:#2380A5; font-family:'Quicksand-Bold'; font-size:7.6946px; letter-spacing:1;">10</text>
		
			<text transform="matrix(1 0 0 1 347.4983 129.9632)" style="fill:#2380A5; font-family:'Quicksand-Bold'; font-size:7.6946px; letter-spacing:1;">11</text>
		
			<text transform="matrix(1 0 0 1 382.7453 129.9632)" style="fill:#2380A5; font-family:'Quicksand-Bold'; font-size:7.6946px; letter-spacing:1;">12</text>
		
			<text transform="matrix(1 0 0 1 419.217 129.9632)" style="fill:#2380A5; font-family:'Quicksand-Bold'; font-size:7.6946px; letter-spacing:1;">13</text>
		
			<text transform="matrix(1 0 0 1 274.1799 162.9857)" style="fill:#2380A5; font-family:'Quicksand-Bold'; font-size:7.6946px; letter-spacing:1;">16</text>
		
			<text transform="matrix(1 0 0 1 236.8108 162.9857)" style="fill:#2380A5; font-family:'Quicksand-Bold'; font-size:7.6946px; letter-spacing:1;">15</text>
		
			<text transform="matrix(1 0 0 1 200.676 162.9857)" style="fill:#2380A5; font-family:'Quicksand-Bold'; font-size:7.6946px; letter-spacing:1;">14</text>
		
			<text transform="matrix(1 0 0 1 310.9406 162.9857)" style="fill:#2380A5; font-family:'Quicksand-Bold'; font-size:7.6946px; letter-spacing:1;">17</text>
		
			<text transform="matrix(1 0 0 1 346.3625 162.9857)" style="fill:#2380A5; font-family:'Quicksand-Bold'; font-size:7.6946px; letter-spacing:1;">18</text>
		
			<text transform="matrix(1 0 0 1 382.5451 162.9857)" style="fill:#2380A5; font-family:'Quicksand-Bold'; font-size:7.6946px; letter-spacing:1;">19</text>
		
			<text transform="matrix(1 0 0 1 417.8518 162.9857)" style="fill:#2380A5; font-family:'Quicksand-Bold'; font-size:7.6946px; letter-spacing:1;">20</text>
		
			<text transform="matrix(1 0 0 1 234.6047 194.4051)" style="fill:#2380A5; font-family:'Quicksand-Bold'; font-size:7.6946px; letter-spacing:1;">22</text>
		
			<text transform="matrix(1 0 0 1 271.3987 194.4051)" style="fill:#FFFFFF; font-family:'Quicksand-Bold'; font-size:7.6946px; letter-spacing:1;">23</text>
		
			<text transform="matrix(1 0 0 1 307.7395 194.4051)" style="fill:#FFFFFF; font-family:'Quicksand-Bold'; font-size:7.6946px; letter-spacing:1;">24</text>
		
			<text transform="matrix(1 0 0 1 345.4778 194.4051)" style="fill:#FFFFFF; font-family:'Quicksand-Bold'; font-size:7.6946px; letter-spacing:1;">25</text>
		
			<text transform="matrix(1 0 0 1 380.6018 194.4051)" style="fill:#FFFFFF; font-family:'Quicksand-Bold'; font-size:7.6946px; letter-spacing:1;">26</text>
		
			<text transform="matrix(1 0 0 1 417.3625 194.4051)" style="fill:#FFFFFF; font-family:'Quicksand-Bold'; font-size:7.6946px; letter-spacing:1;">27</text>
		
			<rect x="179.345" y="219.131" style="fill:none;stroke:#004568;stroke-width:0.5;stroke-miterlimit:10;" width="31.965" height="29.77"/>
		
			<rect x="215.88" y="219.131" style="fill:none;stroke:#004568;stroke-width:0.5;stroke-miterlimit:10;" width="31.965" height="29.77"/>
		
			<rect x="252.414" y="219.131" style="fill:none;stroke:#004568;stroke-width:0.5;stroke-miterlimit:10;" width="31.965" height="29.77"/>
		
			<rect x="288.948" y="219.131" style="fill:none;stroke:#004568;stroke-width:0.5;stroke-miterlimit:10;" width="31.965" height="29.77"/>
		
			<text transform="matrix(1 0 0 1 234.4045 227.1073)" style="fill:#2380A5; font-family:'Quicksand-Bold'; font-size:7.6946px; letter-spacing:1;">29</text>
		
			<text transform="matrix(1 0 0 1 198.8645 227.1073)" style="fill:#2380A5; font-family:'Quicksand-Bold'; font-size:7.6946px; letter-spacing:1;">28</text>
		
			<text transform="matrix(1 0 0 1 270.9367 227.1073)" style="fill:#2380A5; font-family:'Quicksand-Bold'; font-size:7.6946px; letter-spacing:1;">30</text>
		
			<text transform="matrix(1 0 0 1 308.9279 227.1073)" style="fill:#2380A5; font-family:'Quicksand-Bold'; font-size:7.6946px; letter-spacing:1;">31</text>
		<path style="fill:#48A4C1;" d="M420.657,109.124H302.834c-1.726,0-3.126-1.399-3.126-3.126l0,0c0-1.726,1.4-3.126,3.126-3.126
			h117.823c1.726,0,3.126,1.399,3.126,3.126l0,0C423.783,107.724,422.383,109.124,420.657,109.124z"/>
		<path style="fill:#48A4C1;" d="M421.138,205.306H261.956c-1.726,0-3.126-1.399-3.126-3.126l0,0c0-1.726,1.4-3.126,3.126-3.126
			h159.181c1.726,0,3.126,1.4,3.126,3.126l0,0C424.264,203.906,422.864,205.306,421.138,205.306z"/>
		<polyline style="fill:none;stroke:#FFFFFF;stroke-miterlimit:10;" points="391.081,68.887 394.039,71.846 391.081,74.804 		"/>
		<polyline style="fill:none;stroke:#FFFFFF;stroke-miterlimit:10;" points="225.094,74.804 222.135,71.846 225.094,68.887 		"/>
	</g>
	<g>
		<g>
			<path style="fill:#041A2B;" d="M194.736,449.931c-0.004-0.273-0.023-0.544-0.078-0.812c-1.003-4.933-10.45-7.368-22.668-6.422
				c-0.834-0.112-1.655-0.146-2.413-0.027c-0.395,0.062-0.699,0.17-0.987,0.368c-0.929,0.115-1.871,0.25-2.822,0.403
				c-0.199-0.575-0.477-1.126-1.152-1.348c-1.62-0.531-2.924,1.093-4.253,1.659c-0.232,0.099-0.428,0.334-0.332,0.606
				c0.023,0.065,0.042,0.133,0.063,0.2c-4.583,1.068-8.794,2.464-12.419,4.055c-1.639-0.716-3.196-1.618-4.662-2.688
				c-0.377-0.275-0.728,0.131-0.678,0.507c-0.168,0.027-0.319,0.135-0.367,0.352c-0.803,3.597-4.476,5.189-6.469,8.022
				c-1.436,2.041-1.824,5.506-1.104,7.876c1.898,6.249,8.91,7.262,14.759,7.472c3.344,0.12,6.706-0.263,9.94-1.121
				c4.004-1.062,7.645-2.817,11.846-3.076c6.743-0.416,12.735-1.444,18.219-5.725C191.93,458.07,195.845,453.698,194.736,449.931z"
				/>
			<path style="fill:#0C324C;" d="M194.736,449.931c-0.004-0.273-0.023-0.544-0.078-0.812c-0.151-0.744-0.516-1.423-1.032-2.051
				c-0.713,1.806-1.492,3.585-2.539,5.228c-5.283,8.288-15.771,7.154-24.149,9.673c-7.007,2.107-14.715,5.421-22.12,4.869
				c-2.016-0.705-3.944-1.676-5.708-2.924c-1.505-1.065-2.817-2.324-4.035-3.704c-0.318-0.36-0.635-0.73-0.982-1.049
				c-0.103,1.242-0.013,2.486,0.302,3.521c1.898,6.249,8.91,7.262,14.759,7.472c3.344,0.12,6.706-0.263,9.94-1.121
				c4.004-1.062,7.645-2.817,11.846-3.076c6.743-0.416,12.735-1.444,18.219-5.725C191.93,458.07,195.845,453.698,194.736,449.931z"
				/>
			<path style="fill:#0C324C;" d="M181.238,442.667c-2.804-0.227-5.916-0.228-9.247,0.029c-0.834-0.112-1.655-0.146-2.413-0.028
				c-0.395,0.062-0.699,0.17-0.987,0.368c-0.347,0.043-0.704,0.102-1.055,0.151c0.002,0.004,0.004,0.008,0.006,0.011
				c-0.005,0.179,0.075,0.362,0.279,0.461c0.098,0.048,0.18,0.102,0.274,0.152c0.203,0.152,0.429,0.278,0.668,0.388
				c1.709,1.123,2.58,2.671,3.325,4.695c0.382,1.038,0.669,1.674,1.685,2.115c0.32,0.139,0.758-0.164,0.665-0.529
				c-0.589-2.306-1.178-4.611-1.767-6.917c1.79,0.872,3.222,2.111,4.396,3.794c0.17,0.244,0.612,0.247,0.773-0.011
				c0.553-0.889,0.262-2.807,1.875-1.964c1.115,0.583,1.443,1.921,2.733,2.426c0.305,0.12,0.618-0.085,0.668-0.398
				c0.206-1.307-0.251-2.143-0.915-3.222C181.893,443.687,181.569,443.177,181.238,442.667z M172.441,446.589
				c0.182,0.714,0.365,1.428,0.547,2.142c-0.28-0.59-0.512-1.276-0.752-1.904C172.326,446.772,172.401,446.693,172.441,446.589z"/>
		</g>
		<g>
			<path style="fill:#041A2B;" d="M163.881,445.947c0.028-0.271,0.041-0.543,0.02-0.815c-0.378-5.019-8.98-8.579-20.575-9.119
				c-0.771-0.212-1.539-0.345-2.266-0.319c-0.378,0.014-0.676,0.084-0.97,0.246c-0.887,0.002-1.788,0.022-2.699,0.058
				c-0.122-0.595-0.319-1.176-0.928-1.477c-1.462-0.724-2.874,0.731-4.189,1.132c-0.23,0.07-0.44,0.28-0.381,0.561
				c0.014,0.068,0.024,0.137,0.037,0.206c-4.431,0.506-8.55,1.382-12.141,2.522c-1.459-0.909-2.819-1.993-4.075-3.232
				c-0.323-0.318-0.7,0.042-0.696,0.421c-0.161,0.007-0.315,0.095-0.386,0.305c-1.167,3.473-4.803,4.609-7.002,7.18
				c-1.584,1.852-2.346,5.245-1.941,7.684c1.067,6.433,7.544,8.288,13.019,9.204c3.13,0.524,6.335,0.551,9.474,0.091
				c3.886-0.57,7.51-1.87,11.49-1.619c6.387,0.403,12.138,0.108,17.785-3.478C160.309,453.686,164.491,449.82,163.881,445.947z"/>
			<path style="fill:#0C324C;" d="M163.881,445.947c0.028-0.271,0.041-0.543,0.02-0.815c-0.057-0.757-0.322-1.475-0.735-2.16
				c-0.877,1.707-1.814,3.378-2.987,4.883c-5.917,7.587-15.647,5.192-23.813,6.679c-6.829,1.243-14.456,3.6-21.354,2.156
				c-1.814-0.944-3.516-2.142-5.031-3.594c-1.293-1.24-2.382-2.648-3.369-4.165c-0.257-0.396-0.514-0.801-0.803-1.161
				c-0.239,1.221-0.297,2.466-0.12,3.531c1.067,6.433,7.544,8.288,13.019,9.204c3.13,0.524,6.335,0.551,9.474,0.091
				c3.886-0.57,7.511-1.87,11.49-1.619c6.387,0.403,12.138,0.108,17.785-3.478C160.309,453.686,164.491,449.82,163.881,445.947z"/>
			<path style="fill:#0C324C;" d="M152.023,437.103c-2.61-0.564-5.536-0.943-8.697-1.09c-0.771-0.212-1.539-0.345-2.266-0.319
				c-0.378,0.014-0.676,0.085-0.97,0.246c-0.331,0.001-0.674,0.016-1.009,0.022c0.002,0.004,0.003,0.008,0.004,0.012
				c-0.025,0.177,0.029,0.368,0.21,0.491c0.087,0.059,0.158,0.123,0.24,0.184c0.174,0.175,0.371,0.328,0.583,0.466
				c1.478,1.321,2.12,2.964,2.588,5.064c0.24,1.076,0.437,1.743,1.342,2.303c0.285,0.176,0.732-0.071,0.686-0.444
				c-0.289-2.36-0.578-4.72-0.868-7.08c1.583,1.082,2.787,2.486,3.698,4.298c0.132,0.262,0.547,0.319,0.728,0.082
				c0.622-0.816,0.568-2.755,1.988-1.722c0.981,0.713,1.137,2.082,2.291,2.739c0.274,0.156,0.591-0.009,0.673-0.314
				c0.344-1.273,0.01-2.158-0.491-3.309C152.522,438.194,152.276,437.649,152.023,437.103z M143.303,439.931
				c0.09,0.731,0.179,1.461,0.269,2.192c-0.196-0.62-0.335-1.328-0.489-1.981C143.174,440.098,143.254,440.03,143.303,439.931z"/>
		</g>
		<g>
			<g>
				<g>
					<path style="fill:#FFDDC6;" d="M175.837,139.908c-0.139-0.921-0.7-1.589-1.668-1.575c-0.578,0.008-3.081-0.147-3.128-0.415
						c-3.636-20.483-16.863-21.55-27.281-17.826c-10.418,3.724-15.475,16.222-11.296,27.915c0.839,2.348,2.043,4.624,3.507,6.737
						c-0.574,0.053-1.151,0.092-1.731,0.105c-0.215-0.139-0.695-0.036-0.641,0.308c1.496,9.55-3.455,11.996-4.706,18.133
						c-0.227,1.115-1.256,4.18-0.234,5.053c0.682,0.582,2.261,0.381,3.038,0.451c1.776,0.161,3.552,0.321,5.328,0.481
						c0.5,0.045,0.497-0.735,0-0.78c-0.508-0.046-1.016-0.092-1.524-0.138c5.48-0.012,10.877,0.834,16.099,2.543
						c0.229,0.075,0.512-0.129,0.494-0.376c-0.269-3.653,1.531-11.426,2.073-13.827c2.04,0.175,4.061-0.042,5.991-0.732
						c8.672-3.1,13.6-11.327,12.314-21.881C174.414,143.662,176.16,142.048,175.837,139.908z"/>
					<path style="fill:#F2CEB6;" d="M135.045,169.795c1.319,0.087,1.413-1,1.516-2.031c0.318-3.183,1.913-5.36,5.268-5.439
						c1.874-0.044,3.573,0.228,5.211-0.801c0.299,0.106,0.708-0.235,0.525-0.62c-0.807-1.703,0.105-3.228,0.923-4.618
						c0.26-0.441-0.309-0.803-0.667-0.515c-2.655,2.141-6.407,1.146-9.397,0.372c-1.427-0.369-2.836-0.805-4.223-1.303
						c-0.034-0.012-0.069-0.027-0.103-0.041c-0.233-0.042-0.545,0.075-0.501,0.357c1.198,7.652-1.739,10.745-3.598,14.828
						c1.064-0.285,2.32-0.758,3.348-0.756C134.032,169.23,134.47,169.758,135.045,169.795z"/>
					<path style="fill:#F2CEB6;" d="M175.846,140c-0.795,1.241-2.283,2.194-3.883,2.748c-0.03,0.048-0.07,0.09-0.09,0.142
						c-0.028,0.013-0.066-0.019-0.11-0.077c-0.058,0.019-0.116,0.035-0.174,0.054c0.184,0.51,0.243,1.013,0.24,1.52
						c0.002,0.002,0.003,0.005,0.006,0.006c0.061,6.193-1.135,8.94-5.227,13.953c-3.75,4.594-10.318,8.397-16.257,6.115
						c-0.114-0.044-0.22-0.055-0.321-0.049c-0.356-0.312-0.7-0.647-1.029-1.012c-0.541-0.601-0.91,0.671-0.583,1.466
						c1.302,3.165-1.786,5.996-0.212,9.111c0.769,1.522,2.472,2.552,4.153,2.125c0.484-3.626,1.439-7.766,1.809-9.405
						c2.04,0.175,4.061-0.042,5.991-0.732c8.673-3.1,13.6-11.327,12.314-21.881C174.386,143.668,176.105,142.093,175.846,140z"/>
					<path style="fill:#FFDDC6;" d="M114.798,297.108c-0.171-0.698-0.337-1.394-0.503-2.087c0.03-0.045,0.053-0.099,0.064-0.168
						c0.375-2.319,1.049-5.527,0.351-7.847c-0.689-2.289-2.506-4.495-3.797-6.375c-0.052-0.075-0.115-0.114-0.181-0.138
						c-1.216-12.189-3.264-24.256-6.144-36.102c-0.034-0.141-0.112-0.218-0.203-0.253c0.796-5.398,1.497-10.815,2.111-16.248
						c0.161-0.105,0.251-0.322,0.101-0.536c-0.015-0.021-0.029-0.041-0.044-0.062c-0.01-0.196-0.128-0.332-0.269-0.384
						c-3.894-5.549-7.787-11.098-11.681-16.646c-0.156-0.223-0.498-0.273-0.617,0.029c-4.516,11.414-5.022,24.179-3.395,36.496
						c0.011,0.081,0.041,0.143,0.078,0.197c0.489,6.121,1.937,12.054,3.516,17.937c1.762,6.563,3.543,13.119,5.315,19.679
						c0.006,0.024,0.019,0.038,0.028,0.058c-0.231,1.169-0.368,2.356-0.398,3.573c-0.004,0.14,0.047,0.237,0.121,0.299
						c0.181,3.288,0.209,6.705,0.929,9.898c0.373,1.657,1.013,3.223,1.745,4.715c0.368,0.751,0.973,2.613,1.729,2.929
						c1.567,0.656,1.215-2.003,1.01-2.858c-0.407-1.697-1.045-3.208-1.208-4.991c-0.097-1.065-0.065-2.115,0.07-3.148
						c0.27,2.71,0.746,5.383,1.501,7.986c0.409,1.41,1.12,5.315,2.753,5.67c1.241,0.269,1.514-1.238,1.28-2.29
						c-0.029-0.13-0.06-0.256-0.09-0.384c0.243,0.675,0.597,1.283,1.195,1.649c1.207,0.738,2.431-0.187,2.356-1.492
						c1.262,0.161,2.378-0.583,2.944-1.971C116.371,302.016,115.335,299.302,114.798,297.108z"/>
					<path style="fill:#F2CEB6;" d="M114.295,295.02c0.03-0.045,0.053-0.099,0.064-0.168c0.375-2.319,1.049-5.527,0.351-7.847
						c-0.689-2.289-2.506-4.495-3.797-6.375c-0.052-0.075-0.115-0.114-0.181-0.138c-1.216-12.189-3.265-24.256-6.144-36.102
						c-0.034-0.141-0.112-0.218-0.203-0.253c0.797-5.398,1.497-10.815,2.111-16.248c0.16-0.105,0.251-0.322,0.101-0.536
						c-0.015-0.021-0.029-0.041-0.044-0.062c-0.01-0.196-0.128-0.332-0.269-0.384c-3.894-5.549-7.787-11.098-11.681-16.646
						c-0.156-0.223-0.498-0.273-0.617,0.029c-0.793,2.004-1.455,4.052-2.011,6.13c0.199,0.175,0.393,0.352,0.574,0.539
						c0.732,1.088,1.408,2.205,2.03,3.347c0.176,0.511,0.332,1.044,0.444,1.629c0.079,0.41,0.367,0.594,0.682,0.608
						c1.046,2.264,3.565,4.627,4.098,7.101c1.04,4.823-0.981,9.701,0.47,14.456c2.756,9.033,4.62,17.835,6.09,27.178
						c1.576,10.013,2.172,20.542,4.432,30.407c0.524,2.288,1.701,3.648,3.189,4.271c0.626-0.319,1.148-0.902,1.479-1.713
						c0.908-2.227-0.127-4.94-0.664-7.135C114.627,296.41,114.461,295.714,114.295,295.02z"/>
					<path style="fill:#FFDDC6;" d="M240.251,140.049c-0.061-0.59-0.147-1.303-0.545-1.785c-0.382-0.462-0.988-0.59-1.478-0.905
						c-0.121-0.416-0.362-0.794-0.723-1.086c-0.45-0.362-0.986-0.529-1.541-0.633c-0.376-1.026-1.297-1.804-2.365-2.041
						c-0.253-0.712-0.646-1.368-1.366-1.678c-1.022-0.441-2.037,0.129-3.059,0.163c0.657-1.917,1.314-3.833,1.972-5.75
						c0.251-0.731,1.161-2.231,0.608-3.018c-1.387-1.974-4.096,2.58-4.564,3.435c-1.786,3.264-2.947,7.042-3.97,10.602
						c-1.025,3.568-1.505,7.179-0.968,10.842c-6.431,5.199-9.832,12.91-14.736,19.413c-3.588,1.61-7.176,3.221-10.763,4.831
						c-0.134,0.06-0.198,0.158-0.215,0.263c-0.275-0.275-0.863-0.05-0.719,0.404c2.105,6.637,4.211,13.273,6.316,19.91
						c0.104,0.327,0.467,0.396,0.717,0.189c6.315-5.223,13.585-9.984,17.512-17.379c4.082-7.686,7.609-15.714,11.348-23.577
						c2.941-1.659,5.704-3.666,7.324-6.705C239.926,143.869,240.449,141.955,240.251,140.049z"/>
					<path style="fill:#FF7A68;" d="M170.497,279.919c0.111-3.771-0.024-7.553-0.432-11.325c-0.021-0.19-0.176-0.408-0.397-0.378
						c-19.051,2.622-38.375,2.795-57.468,0.491c-0.222-0.027-0.396,0.063-0.47,0.283c-3.274,9.714-6.599,19.662-6.9,30.004
						c-0.293,10.07,3.473,19.569,4.489,29.503c1.974,19.303-2.056,38.531-2.388,57.811c-0.161,9.318,0.575,18.738,3.327,27.685
						c0.662,2.152,1.583,4.249,2.039,6.459c0.639,3.096-0.119,6.153-0.813,9.169c-0.577,2.512-1.157,5.024-1.735,7.536
						c-0.483,2.095-1.392,4.51-1.046,6.692c0.488,3.077,3.6,3.91,6.289,4.001c3.657,0.124,7.844-0.175,11.218-1.698
						c8.248-3.723,6.735-15.026,6.323-22.376c-0.341-6.078-0.759-12.162,0.209-18.207c0.913-5.706,2.662-11.238,3.73-16.914
						c0.496-2.638,0.878-5.294,1.158-7.958c-0.27,9.705-1.783,19.444-2.07,29.115c-0.382,12.85,0.089,25.711,0.424,38.557
						c0.085,3.268,0.045,6.569,0.262,9.831c0.098,1.474,0.554,2.706,2.149,2.997c2.343,0.427,5.219-0.244,7.527-0.745
						c2.516-0.546,4.97-1.369,7.312-2.437c2.439-1.113,4.755-2.493,6.882-4.125c1.534-1.177,3.441-2.533,4.095-4.439
						c0.871-2.536-1.001-5.144-1.132-7.676c-0.156-3.006,0.822-5.951,0.979-8.941c0.333-6.345-1.995-12.57-2.196-18.915
						c-0.208-6.577,0.686-13.122,1.62-19.616c1.846-12.833,3.795-25.653,5.38-38.523
						C171.959,330.621,173.601,305.159,170.497,279.919z M136.145,354.141c0.541,3.428,0.903,6.879,1.097,10.338
						c-0.425-2.356-0.866-4.709-1.017-7.103C136.157,356.299,136.141,355.22,136.145,354.141z"/>
					<path style="fill:#004568;" d="M116.207,197.697c-0.268-5.462-1.288-10.875-3.029-16.001c-0.381-1.123-0.796-2.232-1.243-3.326
						c-0.298-0.729-0.591-2.061-1.376-2.386c-0.673-0.279-1.127,0.092-1.262,0.753c-4.745,0.888-8,5.05-10.081,9.642
						c-2.741,6.049-4.734,12.626-6.539,19.07c-0.752,2.683-1.651,4.882-0.255,7.431c1.297,2.367,2.926,4.585,4.62,6.621
						c3.691,4.437,8.117,8.053,13.007,10.746c0.197,0.108,0.406,0.048,0.53-0.152c2.562-4.144,4.279-8.735,4.91-13.707
						C116.262,210.297,116.507,203.837,116.207,197.697z"/>
					<path style="fill:#001D37;" d="M164.371,132.648c-2.076,0.932-3.535,2.556-4.273,4.703c-0.354,1.031,1.313,1.36,1.664,0.339
						c0.525-1.525,1.689-2.776,3.156-3.434C165.906,133.813,165.371,132.199,164.371,132.648z"/>
					<path style="fill:#C95449;" d="M168.862,355.78c3.097-25.159,4.739-50.621,1.635-75.861c0.111-3.771-0.024-7.553-0.432-11.325
						c-0.021-0.19-0.176-0.408-0.397-0.378c-18.8,2.587-37.866,2.785-56.714,0.575c-0.39,0.02-0.778,0.055-1.167,0.089
						c-0.021,0.033-0.043,0.066-0.057,0.109c-1.236,3.666-2.478,7.365-3.563,11.106c0.028,0.127,0.075,0.253,0.18,0.371
						c12.639,14.292,35.221-1.074,48.094,11.864c7.609,7.648,7.643,21.315,7.548,31.338c-0.107,11.331-1.655,22.582-2.291,33.884
						c-0.299,5.319-0.258,10.593-0.119,15.914c0.156,5.999-0.956,10.732-3.425,16.155c-3.824,8.4-10.685,17.274-7.585,26.793
						c1.415,4.344,2.773,8.344,2.404,13.002c-0.408,5.151-2.429,10.258-5.878,14.132c-2.76,3.099-6.388,4.132-9.421,6.716
						c-0.642,0.547-1.174,1.172-1.626,1.85c0.028,2.032,0.063,4.066,0.197,6.085c0.098,1.474,0.554,2.706,2.149,2.997
						c2.343,0.427,5.219-0.244,7.527-0.745c2.516-0.546,4.97-1.369,7.312-2.437c2.439-1.113,4.754-2.493,6.882-4.125
						c1.534-1.177,3.441-2.533,4.095-4.439c0.871-2.536-1.001-5.144-1.132-7.676c-0.156-3.006,0.822-5.951,0.979-8.941
						c0.333-6.345-1.995-12.57-2.196-18.915c-0.208-6.577,0.686-13.122,1.62-19.616C165.329,381.469,167.278,368.649,168.862,355.78
						z"/>
					<path style="fill:#C95449;" d="M136.02,355.214c-0.9-13.73-0.826-27.513-2.977-41.129c-8.086,0.193-16.621-2.244-23.674-5.629
						c0.981,5.924,7.009,7.013,11.907,8.895c9.668,3.714,8.432,15.954,8.968,24.471c0.575,9.132,1.468,18.311,1.567,27.462
						c0.098,9.108-0.506,18.05,0.4,27.152c0.097,0.978,1.351,3.474,1.715,2.576c2.623-6.468,4.78-15.111,4.407-22.181
						C137.952,369.604,136.495,362.451,136.02,355.214z"/>
					<path style="fill:#F2CEB6;" d="M239.034,145.542c0.892-1.674,1.415-3.588,1.217-5.494c-0.061-0.59-0.147-1.303-0.545-1.785
						c-0.1-0.121-0.216-0.218-0.341-0.302c-0.178,1.12,0.245,2.533-0.056,3.543c-0.657,2.206-2.678,3.744-4.343,5.194
						c-5.341,4.65-7.344,11.621-10.94,17.594c-2.311,3.839-15.07,24.693-20.171,17.515c-0.255-0.359-0.655-0.434-0.996-0.34
						c-1.225-1.317-2.486-2.564-3.989-3.069c-0.38-0.128-0.746,0.067-0.969,0.365c-0.069,0.092-0.13,0.192-0.195,0.288
						c1.476,4.654,2.953,9.308,4.429,13.963c0.104,0.326,0.467,0.396,0.717,0.189c6.314-5.223,13.585-9.984,17.511-17.379
						c4.081-7.686,7.609-15.714,11.348-23.577C234.652,150.588,237.415,148.581,239.034,145.542z"/>
					<g>
						<path style="fill:#004568;" d="M203.386,189.914c-0.043-2.216-0.312-4.433-0.789-6.598c-0.999-4.533-2.939-8.785-5.63-12.559
							c-0.09-0.126-0.273-0.247-0.438-0.178c-5.919,2.481-11.999,4.517-18.209,6.103c-1.453,0.371-2.964,0.484-4.459,0.368
							c-17.946-1.397-18.275-2.683-18.593-5.655c-0.026-0.243-5.4-2.543-5.414-2.548c-4.806-1.542-11.678-2.82-16.772-2.866
							c-2.275-0.021-3.276,1.928-4.141,3.905c-2.976,1.402-11.043,2.251-17.837,5.117c-6.955,2.934-6.021,4.197-10.486,9.274
							c-0.004,0.012-0.007,0.024-0.01,0.036c0.625,3.133,2.088,6.381,1.971,9.724c-0.226,6.436,0.437,12.864,0.445,19.3
							c0.01,7.898-0.192,16.004,2.561,23.528c0.369,1.008,1.613,11.806,1.885,16.805c0.274,5.039-0.275,10.076-0.972,15.061
							c-0.271,1.94-0.694,3.894-0.845,5.847c-0.109,1.41,0.118,2.679,1.387,3.482c1.468,0.929,3.519,1.05,5.186,1.346
							c2.198,0.391,4.406,0.723,6.621,1.001c4.845,0.607,9.727,0.932,14.609,0.982c9.312,0.094,18.637-0.822,27.751-2.733
							c2.149-0.451,4.294-0.946,6.414-1.521c1.636-0.444,3.318-0.96,4.488-2.265c2.479-2.767,2.543-7.624,2.431-11.104
							c-0.146-4.546-1.094-9.013-1.624-13.518c-0.611-5.191-0.291-10.247,0.59-15.391c1.494-8.715,2.939-17.983,8.258-25.302
							c2.701-3.717,6.166-6.88,10.125-9.212c1.985-1.169,4.077-2.107,6.256-2.852c1.528-0.522,3.232-0.982,4.24-2.352
							C203.467,193.671,203.419,191.639,203.386,189.914z"/>
						<path style="fill:#013A51;" d="M169.489,227.028c-0.878,4.874-1.197,9.852-0.874,14.796c0.375,5.738,1.733,11.373,1.96,17.122
							c0.219,5.538-0.742,11.613-4.633,15.836c-1.41,1.53-3.085,2.651-4.667,3.857c2.127-0.447,4.249-0.937,6.347-1.506
							c1.636-0.444,3.318-0.96,4.488-2.265c2.479-2.767,2.543-7.624,2.431-11.104c-0.146-4.546-1.094-9.013-1.624-13.518
							c-0.611-5.191-0.291-10.247,0.59-15.391c1.494-8.715,2.939-17.983,8.258-25.302c2.701-3.717,6.166-6.88,10.125-9.212
							c1.985-1.169,4.077-2.107,6.256-2.852c1.528-0.522,3.232-0.982,4.24-2.352c0.987-1.34,1.03-3.155,1.005-4.776
							c-7.376,3.629-15.738,5.632-21.901,11.266C174.61,207.918,171.097,218.098,169.489,227.028z"/>
						<path style="fill:#013A51;" d="M130.793,248.305c-5.561-0.325-11.647-0.001-17.102-1.172
							c-1.975-0.424-2.796-0.543-3.276-2.688c-0.642-2.87,1.214-1.881,3.357-2.087c3.064-0.294,6.131-0.566,9.196-0.849
							c0.706-0.065,1.154-0.894,0.601-1.45c-1.595-1.599-3.397-1.901-5.614-1.944c-4.699-0.091-8.436-0.776-11.047-5.169
							c-1.71-2.878-2.237-6.064-2.095-9.349c-0.242-0.584-0.53-1.155-0.85-1.737c-0.283,0.075-0.565,0.199-0.842,0.374
							c0.184,4.975,0.741,9.916,2.465,14.629c0.369,1.008,1.613,11.806,1.885,16.805c0.274,5.039-0.275,10.076-0.972,15.061
							c-0.271,1.94-0.694,3.894-0.845,5.847c-0.109,1.41,0.118,2.679,1.387,3.482c1.468,0.929,3.519,1.05,5.186,1.346
							c2.198,0.391,4.406,0.723,6.621,1.001c0.47,0.059,0.942,0.103,1.412,0.156c-1.473-0.401-2.907-0.923-4.285-1.603
							c-2.213-1.092-4.43-2.841-5.499-5.124c-0.473-0.417-0.55-0.789-0.465-1.298c-0.102-0.414-0.167-0.842-0.188-1.284
							c-0.077-1.632,0.494-3.079,1.204-4.481c0.291-1.562,0.792-3.014,2.026-4.172c0.319-0.946,0.484-1.931,0.352-2.995
							c-0.002-0.013,0-0.023-0.001-0.036c-0.72-1.214-1.44-2.428-2.16-3.642c0.779-0.887,1.559-1.774,2.338-2.661
							c1.345-0.952,3.473-0.89,5.043-0.867c2.159,0.032,4.296,0.513,6.463,0.349c2.512-0.19,4.659-1.059,6.306-2.992
							C131.877,249.186,131.553,248.35,130.793,248.305z"/>
					</g>
					<path style="fill:#F2CEB6;" d="M154.039,146.142c-0.661-0.017-1.191,0.411-1.75,0.692c-1.821,0.917-1.55-2.039-0.81-2.023
						c0.547,0.012,0.547-0.837,0-0.849c-1.518-0.032-1.709,2.291-1.067,3.269c0.34,0.518,0.927,0.757,1.536,0.638
						c0.345-0.068,0.654-0.238,0.958-0.407c0.186-0.104,0.372-0.235,0.569-0.319c0.094-0.037,0.189-0.074,0.283-0.112
						c0.532-0.171,0.706,0.177,0.522,1.043c-0.441,0.315-0.017,1.052,0.429,0.733C155.81,148.021,155.562,146.182,154.039,146.142z"
						/>
					<path style="fill:#F2CEB6;" d="M155.101,150.762c-0.503-0.013-1.006-0.026-1.509-0.039c-0.156-0.045-0.28,0.001-0.372,0.084
						c-1.117-0.33-2.502-0.747-3.296-0.392c-0.407,0.182-0.437,0.473-0.696,0.761c-0.554,0.617-1.17,0.921-1.751,1.46
						c-1.043,0.968-1.022,2.508-1.206,3.813c-0.177,1.253-0.446,2.466-0.786,3.683c-0.1,0.356-0.414,0.921-0.263,1.313
						c0.679,1.769,4.87-0.769,5.694-1.38c1.297-0.962,2.362-2.218,3.122-3.642c0.878-1.643,0.993-3.423,1.585-5.138
						C155.733,150.964,155.396,150.692,155.101,150.762z"/>
					<path style="fill:#001D37;" d="M169.792,118.092c-0.371-0.653-0.843-1.245-1.428-1.72c-0.479-0.389-1.738-0.628-2.081-1.006
						c-0.433-0.476-0.311-1.836-0.527-2.486c-0.303-0.913-0.776-1.77-1.389-2.511c-2.5-3.021-6.859-3.358-9.998-1.213
						c-1.665-2.799-4.955-4.293-8.152-3.234c-1.46,0.484-2.738,1.429-3.607,2.701c-0.574,0.84-0.923,1.808-1.468,2.665
						c-1.044,1.643-2.553,1.982-4.367,2.073c-3.504,0.177-6.417,0.97-8.8,3.737c-2.079,2.414-3.044,5.526-2.583,8.664
						c-4.597,0.813-8.392,4.691-9.522,9.259c-1.586,6.407,1.285,12.619,5.69,17.649c4.405,5.03,13.748,3.909,16.279,11.51
						c2.723,0.281,7.017-0.356,9.029-1.866c2.368-1.777,4.663-3.869,5.838-6.65c0.802-1.896,0.678-3.212-0.047-4.611
						c-2.609-0.892-5.312-2.548-5.738-5.166c-0.346-2.122,1.202-4.536,3.314-5.043c0.783-0.188,1.531-0.11,2.226,0.143
						c1.517,0.229,2.55,1.471,3.341,2.805c0.101,0.14,0.199,0.28,0.29,0.419c0.114,0.173,0.18,0.343,0.225,0.51
						c0.121,0.231,0.236,0.458,0.347,0.676c0.141,0.279,0.514,0.222,0.669,0c0.403-0.578,0.684-1.201,0.857-1.841
						c0.052-0.046,0.097-0.103,0.123-0.184c0.65-1.998,0.397-3.934,0.111-5.979c-0.225-1.602-0.546-3.313,0.446-4.705
						c0.452-0.634,1.24-1.156,2.048-1.59c0.398-0.139,0.798-0.272,1.192-0.411c1.889-0.669,3.712-1.516,5.266-2.804
						C170.286,125.47,171.771,121.579,169.792,118.092z"/>
					<path style="fill:#041A2B;" d="M169.792,118.092c-0.371-0.653-0.843-1.245-1.428-1.72c-0.479-0.389-1.738-0.628-2.081-1.006
						c-0.433-0.476-0.311-1.836-0.527-2.486c-0.303-0.913-0.776-1.77-1.389-2.511c-2.5-3.021-6.859-3.358-9.998-1.213
						c-1.635-2.749-4.837-4.233-7.978-3.283c3.373,0.962,6.078,4.019,6.229,7.69c0.01,0.254,0.266,0.51,0.538,0.409
						c1.99-0.735,4.424-1.202,6.348,0.026c1.795,1.146,2.476,3.594,1.158,5.34c-0.144,0.19-0.021,0.466,0.152,0.581
						c2.177,1.443,1.226,4.336-0.309,5.823c-1.352,1.309-3.146,2.019-4.692,3.052c-1.109,0.741-2.198,1.63-2.872,2.803
						c-0.769,1.337-0.438,3.79-1.677,4.611c-1.066,0.706-2.506,0.591-3.715,0.867c-1.19,0.271-1.983,0.756-2.796,1.665
						c-1.342,1.5-2.278,2.922-4.121,3.904c-2.395,1.276-7.34,2.004-7.416-2.05c-0.007-0.364-0.461-0.564-0.725-0.3
						c-1.265,1.268-2.659,2.734-4.415,3.298c-2.014,0.647-4.54-0.057-4.987-2.381c-0.085-0.444-0.692-0.361-0.819,0
						c-0.758,2.156-3.594,1.199-4.931,0.424c-0.585-0.339-1.169-0.722-1.779-1.046c0.551,4.384,2.888,8.528,5.999,12.08
						c4.405,5.03,13.748,3.909,16.279,11.51c2.723,0.281,7.017-0.356,9.029-1.866c2.368-1.777,4.663-3.869,5.838-6.65
						c0.802-1.896,0.678-3.212-0.047-4.611c-2.609-0.892-5.312-2.548-5.738-5.166c-0.346-2.122,1.202-4.536,3.314-5.043
						c0.783-0.188,1.531-0.11,2.226,0.143c1.517,0.229,2.55,1.471,3.341,2.805c0.101,0.14,0.199,0.28,0.29,0.419
						c0.114,0.173,0.18,0.343,0.225,0.51c0.121,0.231,0.236,0.458,0.347,0.676c0.141,0.279,0.514,0.222,0.669,0
						c0.403-0.578,0.684-1.201,0.857-1.841c0.052-0.046,0.097-0.103,0.123-0.184c0.65-1.998,0.397-3.934,0.111-5.979
						c-0.225-1.602-0.546-3.313,0.446-4.705c0.452-0.634,1.24-1.156,2.048-1.59c0.398-0.139,0.798-0.272,1.192-0.411
						c1.889-0.669,3.712-1.516,5.266-2.804C170.286,125.47,171.771,121.579,169.792,118.092z"/>
				</g>
				<path style="fill:#041A2B;" d="M165.702,137.994c0,0.566-0.458,1.024-1.024,1.024s-1.024-0.458-1.024-1.024
					c0-0.565,0.458-1.024,1.024-1.024S165.702,137.429,165.702,137.994z"/>
				<g>
					<g>
						<path style="fill:none;stroke:#FDF7F3;stroke-miterlimit:10;" d="M140.301,113.259"/>
					</g>
				</g>
				<g>
					<g>
						<path style="fill:none;stroke:#FDF7F3;stroke-miterlimit:10;" d="M134.074,105.333"/>
					</g>
				</g>
				<g>
					<path style="fill:#C95449;" d="M113.753,432.54c-0.857-0.622-1.746-1.117-2.538-1.753c-0.489,2.124-0.978,4.247-1.466,6.37
						c-0.018,0.08-0.041,0.163-0.06,0.244c0.031,0.009,0.059,0.022,0.091,0.03c1.499,0.394,3.155,0.359,4.437-0.601
						C115.987,435.505,115.283,433.651,113.753,432.54z"/>
					<path style="fill:#C95449;" d="M125.221,423.437c-0.711-0.253-1.766-0.199-2.523-0.352c-1.626-0.329-3.213-0.861-4.719-1.556
						c-2.562-1.184-4.888-2.862-6.829-4.909c0.445,1.261,0.877,2.526,1.146,3.831c0.579,2.804,0.011,5.576-0.617,8.315l6.684-1.239
						c2.131-0.395,4.508-0.627,6.31-1.947c0.435-0.318,1.41-1.055,1.292-1.651C125.845,423.314,125.699,423.607,125.221,423.437z"/>
				</g>
				<path style="fill:#013A51;" d="M104.087,206.485c0.072-0.534-0.746-0.766-0.819-0.226c-0.235,1.74-0.297,3.469-0.164,5.221
					c0.041,0.542,0.891,0.546,0.849,0C103.827,209.81,103.863,208.146,104.087,206.485z"/>
				<path style="fill:#013A51;" d="M109.155,182.6c-1.56,1.712-2.76,3.65-3.608,5.805c-0.2,0.509,0.621,0.729,0.819,0.226
					c0.793-2.015,1.931-3.83,3.39-5.43C110.123,182.798,109.524,182.195,109.155,182.6z"/>
				<path style="fill:#013A51;" d="M142.58,175.581c-4.742-0.493-9.374-1.496-13.16-4.472c-1.694,1.643,3.592,3.581,4.331,3.883
					c3.698,1.515,7.673,2.365,11.667,2.502c2.454,0.084,7.839,0.568,9.286-2.021c0.028-0.049,0.043-0.098,0.05-0.145
					C151.176,176.776,146.016,175.939,142.58,175.581z"/>
				<path style="fill:#07406B;" d="M129.09,152.492c-1.731-0.264-3.211-1.112-4.31-2.474c-0.343-0.425-0.941,0.179-0.6,0.601
					c1.179,1.461,2.829,2.41,4.685,2.693C129.398,153.392,129.629,152.574,129.09,152.492z"/>
				<path style="fill:#07406B;" d="M132.042,152.775c-1.325-0.843-2.65-1.685-3.975-2.528c-0.463-0.294-0.889,0.441-0.429,0.733
					c1.325,0.843,2.65,1.685,3.975,2.528C132.076,153.802,132.503,153.067,132.042,152.775z"/>
				<path style="fill:#07406B;" d="M136.203,153.337c-0.264-1.294-1.071-2.395-2.214-3.052c-0.475-0.273-0.903,0.461-0.429,0.733
					c0.966,0.556,1.602,1.456,1.824,2.545C135.494,154.098,136.312,153.872,136.203,153.337z"/>
				<path style="fill:#07406B;" d="M148.631,110.318c-0.173-0.515-0.993-0.294-0.819,0.226c0.606,1.806,0.111,3.684-1.307,4.956
					c-0.408,0.366,0.194,0.965,0.6,0.601C148.73,114.643,149.325,112.386,148.631,110.318z"/>
				<path style="fill:#07406B;" d="M136.756,130.054c-0.509-0.2-0.729,0.621-0.226,0.819c1.15,0.453,1.851,1.718,1.636,2.932
					c-0.095,0.534,0.723,0.764,0.819,0.226C139.288,132.322,138.367,130.688,136.756,130.054z"/>
				<path style="fill:#07406B;" d="M142.675,131.428c-0.992-1.535-2.548-2.473-4.362-2.663c-0.543-0.057-0.539,0.793,0,0.849
					c1.5,0.157,2.812,0.979,3.629,2.242C142.238,132.314,142.973,131.889,142.675,131.428z"/>
				<path style="fill:#07406B;" d="M145.866,127.934c-1.458-0.946-3.184-1.207-4.86-0.752c-0.527,0.143-0.303,0.963,0.226,0.819
					c1.47-0.399,2.929-0.162,4.206,0.666C145.898,128.966,146.324,128.231,145.866,127.934z"/>
				<path style="fill:#07406B;" d="M149.315,117.129c-0.849,3.151-3.395,5.492-6.594,6.108c-0.536,0.103-0.309,0.922,0.226,0.819
					c3.481-0.67,6.266-3.283,7.187-6.701C150.277,116.827,149.458,116.601,149.315,117.129z"/>
				<path style="fill:#07406B;" d="M155.196,114.674c-0.031,1.807-0.682,3.449-1.907,4.78c-0.37,0.402,0.23,1.004,0.6,0.601
					c1.375-1.495,2.121-3.349,2.155-5.381C156.054,114.128,155.205,114.128,155.196,114.674z"/>
				<path style="fill:#07406B;" d="M162.026,112.268c-0.162-0.52-0.982-0.298-0.819,0.226c0.661,2.128,0.263,4.352-1.156,6.085
					c-0.343,0.42,0.254,1.024,0.6,0.601C162.258,117.216,162.781,114.699,162.026,112.268z"/>
				<path style="fill:#07406B;" d="M123.195,129.807c-1.449,0.551-2.28,2.191-1.735,3.676c0.187,0.509,1.008,0.289,0.819-0.226
					c-0.374-1.018,0.098-2.235,1.142-2.632C123.927,130.433,123.707,129.612,123.195,129.807z"/>
				<path style="fill:#07406B;" d="M127.869,130.632c-1.637,0.889-2.25,2.938-1.452,4.6c0.237,0.492,0.969,0.062,0.733-0.429
					c-0.603-1.255-0.059-2.783,1.147-3.438C128.778,131.105,128.35,130.371,127.869,130.632z"/>
				<path style="fill:#E0B7A0;" d="M171.348,152.12c-2.142,0.491-5.241,2.63-7.066,0.398c-0.346-0.423-0.944,0.18-0.6,0.6
					c2.104,2.574,5.414,0.389,7.892-0.179C172.106,152.817,171.881,151.998,171.348,152.12z"/>
			</g>
			<g>
				<path style="fill:#F2CEB6;" d="M231.529,123.174c-0.293-0.159-0.573-0.195-0.898-0.121c-0.117,0.027-0.192,0.09-0.24,0.167
					c-0.316,0.15-0.247,0.761,0.207,0.815c0.287,0.034,0.554,0.004,0.829-0.085C231.761,123.843,231.863,123.355,231.529,123.174z"
					/>
				<path style="fill:#F2CEB6;" d="M229.457,127.773c-0.583-0.325-1.199-0.499-1.865-0.536c-0.546-0.03-0.544,0.819,0,0.849
					c0.514,0.028,0.987,0.17,1.436,0.42C229.506,128.773,229.935,128.039,229.457,127.773z"/>
				<path style="fill:#F2CEB6;" d="M232.085,133.169c-0.424-0.286-0.906-0.414-1.416-0.375c-0.541,0.042-0.546,0.891,0,0.849
					c0.378-0.029,0.672,0.047,0.987,0.26C232.111,134.208,232.537,133.473,232.085,133.169z"/>
				<path style="fill:#F2CEB6;" d="M234.968,135.427c-0.172-0.147-0.348-0.276-0.546-0.385c-0.479-0.264-0.908,0.469-0.428,0.733
					c0.137,0.076,0.254,0.149,0.374,0.252C234.781,136.381,235.384,135.783,234.968,135.427z"/>
				<path style="fill:#F2CEB6;" d="M237.573,137.303c-0.167-0.103-0.334-0.206-0.501-0.309c-0.466-0.288-0.893,0.446-0.429,0.733
					c0.167,0.103,0.334,0.206,0.501,0.309C237.611,138.324,238.038,137.59,237.573,137.303z"/>
				<path style="fill:#F2CEB6;" d="M227.557,132c-0.304-0.142-0.586-0.217-0.922-0.237c-0.546-0.032-0.544,0.817,0,0.849
					c0.181,0.011,0.328,0.044,0.493,0.121C227.621,132.963,228.053,132.231,227.557,132z"/>
			</g>
		</g>
	</g>
	<g>
		<polygon style="fill:none;stroke:#FFFFFF;stroke-width:0.75;stroke-miterlimit:10;stroke-dasharray:1;" points="191.417,284.707 
			184.219,277.775 184.219,291.64 		"/>
		<polygon style="fill:none;stroke:#FFFFFF;stroke-width:0.75;stroke-miterlimit:10;stroke-dasharray:1;" points="202.963,284.707 
			195.765,277.775 195.765,291.64 		"/>
		<polygon style="fill:none;stroke:#FFFFFF;stroke-width:0.75;stroke-miterlimit:10;stroke-dasharray:1;" points="214.508,284.707 
			207.311,277.775 207.311,291.64 		"/>
	</g>
	<g>
		<polygon style="fill:none;stroke:#FFFFFF;stroke-width:0.75;stroke-miterlimit:10;stroke-dasharray:1;" points="416.597,320.53 
			387.79,287.478 387.79,353.582 		"/>
		<polygon style="fill:none;stroke:#FFFFFF;stroke-width:0.75;stroke-miterlimit:10;stroke-dasharray:1;" points="374.057,320.53 
			345.251,287.478 345.251,353.582 		"/>
	</g>
</g>
</svg>
