<svg id="SvgjsSvg1001" width="288" height="288" xmlns="http://www.w3.org/2000/svg" version="1.1" xmlns:xlink="http://www.w3.org/1999/xlink" xmlns:svgjs="http://svgjs.com/svgjs"><defs id="SvgjsDefs1002"></defs><g id="SvgjsG1008"><svg xmlns="http://www.w3.org/2000/svg" enable-background="new 0 0 500 500" viewBox="0 0 500 500" width="288" height="288"><rect width="500" height="500" fill="#009689" class="colorfff svgShape"></rect><path fill="#ffffff" d="M431.276,333.179c-7.509-4.65-15.976-7.281-24.809-10.288
		c-9.045-3.079-18.36-7.717-22.804-16.175c-5.216-9.929-2.36-21.841,0.769-31.953c3.339-10.789,8.487-20.902,14.027-30.706
		c12.59-22.279,27.465-44.505,35.194-69.188c9.859-31.489,5.05-64.564-19.537-87.832c-21.006-19.878-49.664-25.766-77.46-20.348
		c-36.562,7.126-69.479,25.843-91.163,56.482c-12.871,18.186-32.688,41.116-58.081,31.939
		c-16.775-6.063-25.343-24.235-38.858-34.769c-30.667-23.903-74.052,0.618-91.65,28.977c-19.651,31.667-14.575,71.668,8.408,100.197
		c5.922,7.351,12.933,13.813,20.774,19.074c8.9,5.971,19.03,9.777,27.953,15.7c8.964,5.951,17.182,15.599,16.388,27.067
		c-0.803,11.581-11.992,16.901-22.115,18.517c-13.096,2.09-35.202,0.016-39.082,17.02c-2.061,9.034,3.701,17.667,9.092,24.346
		c3.501,4.338,7.22,8.527,10.882,12.73c4.022,4.615,14.048,12.235,10.03,18.805c-5.978,9.775-17.867,15.754-28.895,17.19
		c-0.389,0.051-0.545,0.437-0.463,0.721c-0.015,0.029-0.037,0.046-0.05,0.08c-0.044,0.084-0.067,0.174-0.07,0.269
		c-0.023,0.154,0.011,0.285,0.067,0.398c-0.983,0.964-0.653,3.009,1.081,2.916c46.483-2.499,92.629,2.469,139.022,4.419
		c46.471,1.954,93.294,0.326,139.762-1.187c26.398-0.859,52.783-2.293,79.097-4.581c0.6-0.052,0.911-0.521,0.951-0.994
		c0.191-0.044,0.386-0.116,0.584-0.243c15.302-9.827,25.185-27.232,24.952-45.548c-0.162-12.724-5.351-25.156-13.826-34.585
		C438.326,338.158,434.913,335.432,431.276,333.179z" opacity=".2" class="colore8cd58 svgShape"></path><ellipse cx="250" cy="422.561" fill="#e5f2fc" rx="199.742" ry="12.661" class="colore5f2fc svgShape"></ellipse><path fill="#ce4d4d" d="M408.095 223.507c-.711-.103-1.376.039-1.991.359.984-.849 1.989-1.677 3.041-2.456.081-.061 0-.19-.085-.133-1.794 1.204-3.463 2.521-5.071 3.892-.265.134-1.23 1.03-1.44 1.22.293-.489.462-1.045.536-1.617.097-.744.174-1.718-.365-2.322-.527-.592-1.395-.473-1.799.19-.457.744-.131 1.705.123 2.459.158.473.33.95.336 1.453.006.535-.278 1.006-.54 1.453-2.571 2.533-4.9 5.277-7.02 8.183.261-.809.331-1.718.32-2.536-.014-1.082-.32-2.23-.957-3.119-.319-.448-.79-.815-1.367-.777-.638.046-.918.549-1.103 1.096-.42 1.239-.444 2.583-.226 3.867.213 1.251.896 2.716 2.276 2.957-3.002 4.328-5.581 8.977-7.847 13.799.003-.34-.005-.68-.043-1.02-.108-.949-.315-1.893-.625-2.795-.588-1.702-1.643-3.652-3.642-3.867-.882-.094-1.796.199-2.37.9-.517.63-.725 1.425-.759 2.226-.071 1.701.799 3.326 1.912 4.553 1.096 1.206 2.745 2.245 4.415 2.45-2.07 4.659-3.89 9.441-5.544 14.213-.748-3.542-3.519-6.807-7.021-7.775-2.174-.603-4.771.665-4.394 3.216.315 2.127 2.195 3.952 3.884 5.119.987.681 2.059 1.195 3.199 1.564.588.19 1.193.33 1.805.418.54.077 1.11.157 1.647.046-.096.284-.198.573-.293.858-2.077 6.227-4.185 12.463-6.122 18.734-.273.889 1.227 1.439 1.557.556 1.143-3.053 2.177-6.143 3.177-9.246 2.662.416 5.372.505 8.05.206 1.334-.148 2.662-.38 3.96-.727 1.193-.32 2.551-.639 3.518-1.454.767-.648 1.277-1.719.92-2.719-.307-.858-1.131-1.337-1.968-1.567-2.345-.642-5.105-.007-7.305.865-2.347.931-4.418 2.331-6.419 3.835-.081-.014-.161-.023-.242-.038 1.817-5.705 3.557-11.437 5.581-17.073.924.46 2.216.452 3.221.48 1.125.033 2.248-.058 3.358-.238 1.067-.174 2.122-.435 3.14-.803.948-.343 2.002-.735 2.762-1.417.747-.672.998-1.677.613-2.612-.398-.965-1.309-1.557-2.302-1.771-1.989-.426-4.093.279-5.836 1.201-.988.525-1.899 1.168-2.792 1.836-.439.328-.871.662-1.306.992.161-.426.307-.858.472-1.282 1.673-4.306 3.514-8.552 5.615-12.659.058.01.108.029.173.025 1.662-.083 3.313-.325 4.93-.719.777-.188 1.539-.44 2.288-.72.727-.271 1.455-.598 1.912-1.255.405-.586.564-1.471.041-2.044-.478-.526-1.359-.503-2.018-.502-1.357.002-2.7.348-3.916.946-.622.307-1.2.694-1.736 1.139 2.008-3.6 4.241-7.069 6.808-10.33.114-.146.239-.282.355-.427.024.045.04.096.076.133.241.256.604.311.934.383.331.069.664.121 1.002.155.647.066 1.307.1 1.952.017 1.062-.137 2.356-.387 3.078-1.26.326-.394.566-.935.434-1.451-.147-.581-.645-.726-1.176-.805-1.076-.158-2.179-.088-3.214.25-.535.177-1.046.416-1.527.705.725-.854 1.47-1.688 2.266-2.522.021-.026.036-.054.057-.08.311-.403.723-.76 1.08-1.121.187-.189.373-.376.562-.561.476-.47 1.074-.991 1.763-1.08.908-.12 1.813.077 2.721.107.705.025 1.625-.077 1.696-.965C409.337 223.978 408.736 223.6 408.095 223.507M184.3 106.531c.556-.298 1.146-.381 1.749-.302-1.066-.405-2.143-.786-3.245-1.113-.085-.026-.057-.156.03-.135 1.841.454 3.612 1.039 5.35 1.687.258.031 1.324.48 1.553.574-.389-.315-.694-.723-.927-1.172-.303-.585-.659-1.365-.396-2.024.257-.646 1.008-.809 1.541-.383.6.477.62 1.367.637 2.065.011.437.013.882.159 1.299.156.443.531.746.881 1.036 2.88 1.317 5.624 2.881 8.245 4.641-.458-.588-.788-1.318-1.025-1.995-.313-.897-.406-1.935-.147-2.859.129-.465.407-.909.894-1.051.54-.154.922.177 1.239.573.718.896 1.141 1.996 1.347 3.121.199 1.095.076 2.508-.99 3.121 3.774 2.668 7.296 5.727 10.612 9.024-.104-.28-.2-.563-.271-.854-.196-.815-.309-1.655-.324-2.493-.026-1.58.259-3.504 1.842-4.281.699-.342 1.541-.375 2.224.031.615.364 1.025.957 1.294 1.608.569 1.381.339 2.982-.21 4.328-.542 1.323-1.59 2.675-2.906 3.345 3.106 3.221 6.041 6.617 8.837 10.056-.446-3.145.859-6.669 3.456-8.518 1.612-1.15 4.133-.883 4.588 1.333.378 1.849-.624 3.918-1.667 5.387-.609.858-1.339 1.604-2.169 2.25-.428.333-.885.63-1.363.886-.422.226-.868.463-1.344.532.165.206.335.413.499.62 3.581 4.511 7.191 9.02 10.67 13.611.492.651-.58 1.555-1.117.926-1.859-2.174-3.639-4.412-5.395-6.67-2.07 1.142-4.278 2.029-6.576 2.586-1.144.278-2.309.485-3.483.589-1.08.095-2.296.239-3.337-.144-.827-.304-1.569-1.034-1.575-1.965-.005-.799.532-1.442 1.152-1.883 1.741-1.233 4.207-1.538 6.283-1.479 2.214.063 4.342.596 6.444 1.236.063-.036.126-.068.188-.104-3.21-4.159-6.366-8.363-9.726-12.403-.624.657-1.691 1.038-2.512 1.363-.917.365-1.871.627-2.84.812-.932.177-1.88.278-2.83.28-.885.001-1.871-.005-2.703-.339-.818-.33-1.326-1.084-1.289-1.969.038-.915.612-1.677 1.367-2.151 1.512-.948 3.459-.999 5.172-.761.972.137 1.916.393 2.853.676.46.139.917.284 1.374.426-.261-.303-.51-.615-.774-.916-2.672-3.048-5.464-5.997-8.429-8.753-.045.025-.081.057-.135.072-1.396.431-2.829.726-4.281.887-.697.078-1.401.099-2.103.093-.681-.006-1.38-.056-1.953-.461-.51-.362-.906-1.044-.647-1.673.236-.577.969-.823 1.514-1.019 1.12-.405 2.331-.523 3.513-.395.605.066 1.198.212 1.773.418-2.736-2.365-5.619-4.556-8.714-6.474-.138-.086-.282-.161-.421-.245-.007.044-.004.091-.022.133-.122.283-.404.438-.655.596-.252.157-.512.299-.779.429-.514.249-1.047.475-1.604.6-.917.206-2.059.388-2.917-.115-.387-.227-.747-.602-.793-1.067-.053-.523.314-.792.729-1.016.839-.453 1.771-.726 2.725-.758.495-.015.988.029 1.471.123-.854-.486-1.719-.951-2.625-1.4-.025-.015-.046-.034-.071-.049-.378-.239-.824-.409-1.227-.6-.211-.1-.421-.198-.632-.294-.534-.245-1.183-.495-1.777-.362-.785.174-1.472.608-2.212.905-.574.232-1.363.424-1.688-.287C183.417 107.292 183.799 106.8 184.3 106.531" class="colorce4d4d svgShape"></path><path fill="#97c4ee" d="M202.382,172.902c-0.19-0.376-0.235-0.772-0.172-1.173c-0.288,0.705-0.561,1.418-0.798,2.148
			c-0.019,0.056-0.105,0.035-0.09-0.022c0.334-1.221,0.755-2.394,1.217-3.544c0.025-0.172,0.343-0.876,0.41-1.027
			c-0.217,0.254-0.495,0.451-0.798,0.599c-0.396,0.192-0.922,0.417-1.358,0.23c-0.427-0.182-0.523-0.687-0.23-1.035
			c0.328-0.393,0.923-0.391,1.389-0.39c0.292,0,0.589,0.006,0.87-0.084c0.298-0.096,0.507-0.342,0.707-0.571
			c0.928-1.901,2.019-3.706,3.238-5.427c-0.401,0.296-0.893,0.504-1.349,0.651c-0.604,0.194-1.299,0.238-1.911,0.05
			c-0.308-0.094-0.6-0.287-0.686-0.615c-0.094-0.363,0.134-0.613,0.404-0.817c0.61-0.464,1.352-0.728,2.107-0.846
			c0.735-0.115,1.676-0.008,2.067,0.713c1.845-2.475,3.948-4.775,6.205-6.933c-0.189,0.065-0.379,0.124-0.575,0.167
			c-0.547,0.117-1.11,0.178-1.67,0.174c-1.055-0.009-2.336-0.232-2.827-1.303c-0.217-0.472-0.224-1.035,0.059-1.485
			c0.254-0.405,0.657-0.668,1.096-0.837c0.932-0.357,1.997-0.176,2.886,0.214c0.874,0.384,1.76,1.107,2.184,1.997
			c2.203-2.019,4.52-3.922,6.864-5.731c-2.108,0.245-4.438-0.686-5.629-2.452c-0.74-1.095-0.52-2.775,0.968-3.041
			c1.241-0.222,2.605,0.483,3.569,1.204c0.563,0.421,1.048,0.921,1.466,1.486c0.215,0.292,0.406,0.602,0.568,0.925
			c0.143,0.286,0.294,0.587,0.333,0.907c0.14-0.106,0.281-0.217,0.422-0.323c3.073-2.315,6.145-4.649,9.268-6.895
			c0.443-0.317,1.028,0.414,0.599,0.762c-1.483,1.204-3.007,2.355-4.545,3.489c0.727,1.401,1.282,2.891,1.615,4.435
			c0.166,0.769,0.285,1.55,0.334,2.336c0.045,0.723,0.121,1.537-0.152,2.226c-0.217,0.547-0.717,1.03-1.339,1.018
			c-0.534-0.01-0.954-0.379-1.238-0.801c-0.794-1.183-0.956-2.835-0.881-4.22c0.08-1.478,0.472-2.889,0.934-4.282
			c-0.023-0.042-0.043-0.085-0.066-0.128c-2.831,2.073-5.692,4.109-8.446,6.285c0.428,0.427,0.664,1.147,0.867,1.7
			c0.228,0.619,0.387,1.26,0.494,1.91c0.102,0.626,0.154,1.26,0.139,1.895c-0.014,0.591-0.035,1.249-0.272,1.799
			c-0.234,0.54-0.746,0.867-1.337,0.828c-0.611-0.041-1.109-0.437-1.413-0.949c-0.608-1.025-0.608-2.327-0.421-3.467
			c0.108-0.647,0.295-1.273,0.5-1.894c0.1-0.305,0.205-0.607,0.308-0.91c-0.207,0.169-0.419,0.33-0.625,0.501
			c-2.08,1.733-4.097,3.547-5.987,5.48c0.016,0.03,0.036,0.055,0.046,0.091c0.264,0.939,0.437,1.902,0.52,2.873
			c0.04,0.467,0.042,0.937,0.027,1.406c-0.015,0.454-0.061,0.92-0.341,1.296c-0.25,0.334-0.712,0.587-1.128,0.404
			c-0.382-0.168-0.533-0.661-0.655-1.028c-0.252-0.754-0.31-1.565-0.204-2.352c0.055-0.403,0.162-0.796,0.309-1.177
			c-1.626,1.787-3.137,3.675-4.47,5.709c-0.06,0.091-0.112,0.185-0.171,0.277c0.029,0.005,0.061,0.004,0.088,0.017
			c0.187,0.086,0.286,0.277,0.387,0.447c0.1,0.171,0.191,0.347,0.273,0.528c0.157,0.347,0.299,0.707,0.373,1.081
			c0.122,0.616,0.224,1.381-0.126,1.945c-0.158,0.255-0.414,0.489-0.726,0.512c-0.35,0.027-0.524-0.223-0.666-0.504
			c-0.288-0.568-0.455-1.195-0.46-1.833c-0.002-0.331,0.036-0.659,0.107-0.98c-0.339,0.562-0.664,1.132-0.979,1.729
			c-0.01,0.017-0.023,0.03-0.034,0.047c-0.166,0.248-0.287,0.544-0.422,0.809c-0.07,0.139-0.139,0.278-0.207,0.417
			c-0.173,0.352-0.351,0.782-0.272,1.181c0.103,0.527,0.381,0.993,0.567,1.492c0.145,0.387,0.26,0.917-0.22,1.122
			C202.875,173.504,202.553,173.241,202.382,172.902" class="color97c4ee svgShape"></path><path fill="#1f233a" d="M237.744,104.325c-0.257,0.053-0.468,0.185-0.639,0.371c0.232-0.414,0.475-0.824,0.739-1.222
			c0.02-0.031-0.024-0.065-0.046-0.035c-0.467,0.637-0.876,1.297-1.258,1.968c-0.074,0.079-0.294,0.507-0.343,0.598
			c0.04-0.204,0.029-0.417-0.017-0.622c-0.059-0.268-0.154-0.612-0.414-0.752c-0.255-0.138-0.538,0.011-0.594,0.289
			c-0.064,0.313,0.167,0.602,0.348,0.829c0.113,0.143,0.232,0.285,0.296,0.457c0.069,0.183,0.03,0.38-0.005,0.566
			c-0.568,1.19-1.026,2.423-1.393,3.685c-0.011-0.31-0.1-0.631-0.206-0.911c-0.14-0.37-0.387-0.726-0.717-0.952
			c-0.165-0.114-0.373-0.182-0.566-0.097c-0.214,0.095-0.247,0.303-0.242,0.514c0.01,0.478,0.169,0.942,0.404,1.357
			c0.229,0.403,0.646,0.821,1.15,0.732c-0.493,1.861-0.8,3.779-0.978,5.718c-0.042-0.117-0.086-0.233-0.142-0.345
			c-0.155-0.313-0.344-0.611-0.563-0.883c-0.414-0.511-1.019-1.05-1.732-0.875c-0.315,0.077-0.592,0.292-0.702,0.604
			c-0.099,0.281-0.072,0.58,0.017,0.859c0.187,0.593,0.689,1.043,1.224,1.326c0.527,0.278,1.223,0.43,1.822,0.292
			c-0.131,1.858-0.161,3.728-0.135,5.573c-0.698-1.124-2.056-1.9-3.38-1.797c-0.822,0.063-1.556,0.822-1.109,1.652
			c0.373,0.692,1.246,1.085,1.972,1.275c0.424,0.111,0.856,0.154,1.294,0.139c0.226-0.008,0.451-0.035,0.672-0.081
			c0.195-0.041,0.401-0.084,0.571-0.189c0.002,0.11,0.003,0.221,0.006,0.331c0.062,2.398,0.114,4.802,0.229,7.198
			c0.017,0.339,0.601,0.341,0.604-0.003c0.013-1.191-0.017-2.381-0.06-3.572c0.966-0.189,1.909-0.495,2.791-0.932
			c0.44-0.217,0.867-0.462,1.27-0.743c0.37-0.258,0.797-0.537,1.027-0.938c0.183-0.318,0.225-0.75-0.022-1.049
			c-0.212-0.256-0.555-0.318-0.871-0.293c-0.885,0.071-1.755,0.633-2.402,1.207c-0.69,0.612-1.227,1.351-1.728,2.117
			c-0.03,0.005-0.058,0.012-0.088,0.017c-0.086-2.186-0.202-4.372-0.208-6.56c0.375,0.043,0.818-0.121,1.166-0.236
			c0.391-0.129,0.765-0.3,1.124-0.5c0.345-0.193,0.675-0.413,0.979-0.667c0.283-0.236,0.596-0.502,0.772-0.831
			c0.173-0.324,0.134-0.701-0.115-0.974c-0.257-0.282-0.643-0.372-1.011-0.322c-0.736,0.101-1.372,0.605-1.855,1.139
			c-0.274,0.303-0.507,0.638-0.731,0.979c-0.11,0.167-0.217,0.336-0.325,0.503c0.002-0.166-0.001-0.333,0.002-0.499
			c0.039-1.688,0.143-3.376,0.353-5.048c0.021-0.004,0.041-0.004,0.062-0.013c0.561-0.235,1.098-0.524,1.604-0.861
			c0.243-0.161,0.474-0.343,0.697-0.532c0.216-0.184,0.426-0.387,0.501-0.669c0.066-0.252,0.01-0.576-0.24-0.707
			c-0.23-0.121-0.53-0.004-0.756,0.079c-0.466,0.17-0.884,0.456-1.227,0.813c-0.176,0.183-0.326,0.388-0.454,0.607
			c0.242-1.487,0.577-2.957,1.053-4.396c0.021-0.064,0.047-0.126,0.069-0.191c0.014,0.012,0.026,0.028,0.042,0.036
			c0.115,0.058,0.246,0.032,0.368,0.015c0.122-0.017,0.243-0.041,0.363-0.071c0.231-0.058,0.462-0.128,0.673-0.237
			c0.348-0.179,0.761-0.426,0.901-0.816c0.063-0.176,0.078-0.392-0.032-0.552c-0.123-0.181-0.312-0.169-0.504-0.13
			c-0.389,0.08-0.76,0.241-1.073,0.486c-0.162,0.127-0.308,0.273-0.437,0.432c0.143-0.384,0.295-0.763,0.464-1.148
			c0.004-0.012,0.005-0.023,0.01-0.035c0.057-0.177,0.154-0.351,0.231-0.52c0.041-0.088,0.081-0.176,0.123-0.263
			c0.105-0.221,0.245-0.474,0.471-0.59c0.297-0.154,0.633-0.199,0.948-0.302c0.245-0.079,0.549-0.229,0.463-0.543
			C238.229,104.331,237.976,104.277,237.744,104.325" class="color1f233a svgShape"></path><path fill="#ffffff" d="M215.731 76.054c-.568.441-.927 1.017-1.124 1.682.072-1.297.174-2.595.343-3.894.012-.1-.137-.131-.155-.032-.38 2.127-.59 4.243-.72 6.352-.088.284-.113 1.601-.121 1.883-.148-.55-.432-1.058-.791-1.508-.469-.586-1.116-1.318-1.924-1.349-.792-.032-1.309.675-1.112 1.427.218.845 1.137 1.278 1.855 1.619.45.214.913.422 1.279.767.389.367.531.898.671 1.397.038 3.609.396 7.19 1.015 10.734-.401-.749-1.007-1.431-1.603-1.991-.789-.741-1.827-1.318-2.909-1.477-.544-.081-1.135.003-1.508.445-.411.491-.243 1.042.023 1.555.6 1.162 1.55 2.113 2.626 2.847 1.048.715 2.577 1.241 3.708.415 1.031 5.166 2.586 10.249 4.483 15.228-.243-.238-.493-.469-.764-.677-.758-.581-1.58-1.088-2.446-1.491-1.633-.758-3.769-1.352-5.311-.063-.68.569-1.104 1.431-.997 2.331.095.809.523 1.511 1.075 2.091 1.174 1.232 2.949 1.734 4.605 1.785 1.629.048 3.522-.417 4.829-1.477 1.916 4.725 4.094 9.354 6.38 13.858-3.068-1.921-7.342-2.193-10.47-.344-1.943 1.146-2.834 3.895-.736 5.395 1.75 1.25 4.368 1.164 6.381.758 1.175-.237 2.29-.652 3.347-1.217.545-.292 1.066-.63 1.553-1.009.43-.335.884-.69 1.176-1.153.138.266.275.54.414.807 3.04 5.818 6.064 11.665 9.233 17.413.45.813 1.888.116 1.481-.735-1.403-2.942-2.909-5.832-4.448-8.706 2.147-1.627 4.093-3.516 5.737-5.651.819-1.063 1.575-2.18 2.225-3.355.599-1.081 1.312-2.28 1.395-3.541.066-1.002-.35-2.112-1.318-2.55-.83-.375-1.748-.114-2.494.328-2.09 1.242-3.549 3.669-4.449 5.858-.959 2.335-1.389 4.798-1.697 7.283-.067.048-.129.1-.195.148-2.845-5.269-5.761-10.5-8.413-15.87.973-.345 1.864-1.281 2.582-1.984.805-.786 1.519-1.658 2.16-2.582.616-.889 1.16-1.829 1.602-2.818.411-.92.861-1.951.898-2.971.035-1.004-.514-1.883-1.454-2.255-.971-.384-2.029-.139-2.873.428-1.687 1.135-2.641 3.139-3.187 5.034-.308 1.075-.478 2.177-.617 3.284-.069.543-.129 1.086-.193 1.628-.195-.411-.404-.816-.595-1.23-1.937-4.194-3.715-8.467-5.212-12.83.047-.035.096-.058.138-.107 1.095-1.254 2.066-2.61 2.905-4.047.404-.69.752-1.413 1.07-2.147.309-.712.58-1.463.424-2.247-.141-.698-.667-1.427-1.442-1.448-.711-.021-1.306.628-1.762 1.104-.941.978-1.624 2.185-2.038 3.475-.211.661-.334 1.345-.385 2.04-1.196-3.944-2.143-7.96-2.708-12.072-.026-.183-.037-.368-.061-.552.049.014.096.038.148.038.351.004.643-.218.924-.406.28-.19.548-.395.807-.613.497-.42.98-.871 1.367-1.393.639-.859 1.357-1.964 1.23-3.091-.057-.509-.28-1.057-.743-1.32-.52-.297-.97-.04-1.396.288-.861.664-1.576 1.507-2.051 2.487-.245.508-.427 1.042-.553 1.589-.111-1.115-.194-2.23-.242-3.382-.004-.033-.014-.063-.018-.097-.074-.504-.044-1.048-.057-1.556-.006-.266-.011-.53-.014-.794-.008-.669.032-1.461.446-2.019.544-.737 1.314-1.252 1.966-1.884.507-.49 1.073-1.223.483-1.891C216.932 75.486 216.243 75.657 215.731 76.054M415.014 268.18c-.382-.336-.831-.509-1.32-.558.912-.123 1.829-.225 2.754-.28.071-.005.073-.113.001-.112-1.53.02-3.03.155-4.514.346-.209-.023-1.128.135-1.326.167.363-.176.678-.441.944-.751.345-.404.768-.952.682-1.519-.083-.555-.644-.82-1.141-.583-.559.265-.737.961-.879 1.506-.089.342-.172.691-.363.992-.203.32-.554.489-.882.653-2.505.508-4.948 1.234-7.331 2.137.468-.379.861-.891 1.171-1.38.41-.648.673-1.447.639-2.22-.016-.389-.153-.789-.51-.99-.396-.22-.757-.03-1.079.224-.728.573-1.263 1.36-1.63 2.206-.358.825-.52 1.958.206 2.635-3.456 1.405-6.785 3.165-9.995 5.148.133-.201.26-.405.369-.621.304-.605.546-1.244.711-1.9.31-1.237.438-2.802-.664-3.703-.486-.397-1.142-.577-1.754-.383-.55.174-.981.565-1.311 1.027-.7.981-.813 2.282-.628 3.441.184 1.139.759 2.394 1.671 3.162-3.031 1.963-5.961 4.094-8.789 6.285.927-2.39.547-5.399-1.156-7.329-1.056-1.199-3.087-1.452-3.851.207-.636 1.384-.228 3.194.323 4.54.322.786.759 1.506 1.293 2.166.275.34.58.658.909.946.29.255.597.523.959.664-.167.131-.339.263-.506.396-3.642 2.89-7.306 5.773-10.881 8.743-.506.421.171 1.328.709.932 1.86-1.368 3.669-2.801 5.463-4.255 1.418 1.277 2.991 2.379 4.695 3.237.849.428 1.726.805 2.63 1.101.832.272 1.761.608 2.649.499.706-.087 1.423-.525 1.598-1.256.15-.628-.154-1.231-.561-1.691-1.142-1.288-3.025-1.98-4.668-2.314-1.752-.356-3.523-.327-5.292-.209-.043-.04-.087-.076-.129-.116 3.286-2.681 6.536-5.407 9.918-7.967.37.63 1.139 1.126 1.725 1.531.654.455 1.356.836 2.084 1.158.701.31 1.427.563 2.173.739.695.163 1.472.339 2.187.228.703-.11 1.241-.609 1.374-1.312.138-.727-.174-1.43-.681-1.941-1.015-1.022-2.536-1.419-3.926-1.546-.789-.071-1.578-.042-2.367.009-.387.025-.773.055-1.158.083.26-.19.514-.39.776-.578 2.659-1.906 5.394-3.713 8.23-5.336.03.028.053.059.093.082 1.018.594 2.091 1.089 3.203 1.481.534.189 1.083.335 1.636.458.536.12 1.095.208 1.62-.004.467-.191.904-.654.815-1.197-.08-.497-.611-.824-1.003-1.078-.806-.524-1.736-.838-2.689-.954-.488-.059-.98-.053-1.47.004 2.584-1.358 5.251-2.552 8.036-3.492.124-.042.251-.075.376-.116-.003.036-.013.072-.007.108.044.245.237.418.406.588.169.169.347.329.534.48.358.29.736.565 1.151.765.683.33 1.547.682 2.314.444.346-.107.698-.336.819-.693.137-.401-.101-.68-.386-.932-.577-.51-1.259-.895-2.003-1.095-.386-.102-.782-.158-1.179-.173.76-.226 1.525-.432 2.32-.619.023-.007.042-.018.065-.026.341-.119.723-.171 1.074-.247.184-.04.367-.079.551-.115.464-.095 1.021-.172 1.464.041.585.28 1.046.747 1.573 1.116.408.287.994.583 1.38.084C415.569 268.94 415.358 268.483 415.014 268.18" class="colore8cd58 svgShape"></path><path fill="#97c4ee" d="M400.667,307.759c0.09-0.33,0.061-0.653-0.054-0.962c0.344,0.514,0.678,1.038,0.985,1.581
			c0.024,0.042,0.09,0.011,0.068-0.032c-0.465-0.918-0.991-1.784-1.546-2.624c-0.048-0.133-0.416-0.642-0.493-0.752
			c0.214,0.167,0.467,0.279,0.733,0.347c0.346,0.089,0.803,0.182,1.119-0.038c0.31-0.215,0.305-0.632,0.014-0.862
			c-0.326-0.259-0.799-0.161-1.17-0.084c-0.233,0.047-0.469,0.101-0.707,0.075c-0.253-0.028-0.459-0.19-0.656-0.34
			c-1.049-1.363-2.212-2.623-3.463-3.795c0.367,0.17,0.793,0.256,1.181,0.299c0.513,0.056,1.073-0.022,1.53-0.272
			c0.23-0.125,0.431-0.326,0.447-0.602c0.016-0.305-0.206-0.466-0.455-0.585c-0.562-0.27-1.196-0.36-1.816-0.331
			c-0.604,0.028-1.336,0.266-1.53,0.905c-1.873-1.671-3.922-3.16-6.071-4.512c0.161,0.021,0.322,0.037,0.485,0.039
			c0.455,0.004,0.913-0.039,1.358-0.133c0.839-0.179,1.822-0.565,2.04-1.498c0.096-0.412,0.01-0.861-0.288-1.173
			c-0.268-0.281-0.632-0.425-1.009-0.488c-0.8-0.132-1.619,0.185-2.264,0.64c-0.634,0.448-1.221,1.168-1.415,1.946
			c-2.083-1.25-4.239-2.388-6.4-3.447c1.719-0.148,3.423-1.269,4.084-2.87c0.411-0.993-0.038-2.295-1.266-2.265
			c-1.024,0.026-1.996,0.809-2.646,1.54c-0.379,0.427-0.685,0.904-0.925,1.423c-0.124,0.267-0.225,0.545-0.302,0.829
			c-0.068,0.251-0.139,0.516-0.117,0.776c-0.129-0.062-0.259-0.127-0.389-0.188c-2.825-1.343-5.651-2.702-8.505-3.982
			c-0.404-0.181-0.752,0.497-0.353,0.704c1.377,0.718,2.779,1.386,4.188,2.039c-0.351,1.235-0.551,2.512-0.564,3.795
			c-0.007,0.639,0.025,1.281,0.114,1.915c0.082,0.583,0.154,1.244,0.484,1.748c0.262,0.4,0.739,0.703,1.232,0.593
			c0.424-0.095,0.698-0.458,0.855-0.84c0.44-1.072,0.3-2.414,0.015-3.505c-0.304-1.164-0.846-2.225-1.441-3.258
			c0.011-0.038,0.02-0.075,0.032-0.112c2.593,1.19,5.203,2.346,7.751,3.63c-0.271,0.41-0.342,1.022-0.414,1.495
			c-0.081,0.53-0.103,1.067-0.082,1.602c0.02,0.515,0.083,1.029,0.198,1.532c0.107,0.468,0.232,0.989,0.51,1.388
			c0.275,0.392,0.736,0.569,1.2,0.441c0.48-0.132,0.812-0.529,0.971-0.986c0.317-0.916,0.106-1.952-0.229-2.829
			c-0.191-0.498-0.442-0.966-0.706-1.427c-0.13-0.226-0.262-0.45-0.393-0.675c0.192,0.101,0.388,0.195,0.579,0.297
			c1.939,1.041,3.841,2.158,5.661,3.39c-0.008,0.027-0.02,0.05-0.022,0.08c-0.057,0.791-0.039,1.586,0.054,2.373
			c0.044,0.378,0.119,0.753,0.208,1.124c0.086,0.359,0.198,0.723,0.482,0.977c0.254,0.225,0.663,0.352,0.964,0.138
			c0.277-0.195,0.317-0.613,0.354-0.925c0.078-0.642-0.008-1.297-0.22-1.907c-0.109-0.312-0.258-0.608-0.438-0.887
			c1.586,1.159,3.097,2.416,4.491,3.819c0.062,0.062,0.119,0.129,0.181,0.193c-0.023,0.009-0.048,0.013-0.067,0.028
			c-0.135,0.099-0.182,0.267-0.235,0.419c-0.052,0.152-0.096,0.307-0.131,0.465c-0.069,0.302-0.123,0.612-0.121,0.922
			c0.003,0.51,0.046,1.137,0.418,1.529c0.168,0.177,0.41,0.322,0.661,0.289c0.283-0.036,0.381-0.263,0.449-0.51
			c0.137-0.5,0.168-1.026,0.068-1.535c-0.053-0.263-0.136-0.519-0.245-0.763c0.362,0.392,0.713,0.793,1.061,1.218
			c0.011,0.012,0.024,0.02,0.035,0.032c0.173,0.171,0.317,0.386,0.468,0.576c0.078,0.099,0.156,0.199,0.233,0.298
			c0.195,0.252,0.406,0.565,0.409,0.896c0.004,0.436-0.142,0.853-0.208,1.281c-0.053,0.332-0.058,0.773,0.358,0.858
			C400.372,308.319,400.586,308.057,400.667,307.759" class="color97c4ee svgShape"></path><g><path fill="#97c4ee" d="M353.299,429.181l-109.577-10.575c-10.35-0.999-18.696-10.503-18.696-21.232V146.686
			c0-10.73,8.346-19.309,18.696-19.163l109.577,1.553c11.067,0.157,20.089,9.35,20.089,20.532v261.265
			C373.387,422.055,364.366,430.25,353.299,429.181z" class="color97c4ee svgShape"></path><path fill="#79add8" d="M352.099,132.428l-45.8-0.691v0.07c0,0.517-0.44,1.129-1.31,1.115l-14.078-0.217
			c-0.93-0.014-1.386-0.637-1.386-1.152v-0.069l-44.675-0.674c-9.066-0.137-16.382,7.105-16.382,16.175v250.473
			c0,9.07,7.316,17.122,16.382,17.989l107.249,10.252c9.675,0.925,17.556-5.97,17.556-15.403v-260.52
			C369.656,140.34,361.775,132.574,352.099,132.428z" class="color79add8 svgShape"></path><path fill="#1f233a" d="M366.82,408.783V152.515c0-9.459-7.895-17.251-17.588-17.405l-40.382-0.64
			c-1.946-0.031-3.624,1.458-3.61,3.373c0.04,5.277-5.459,9.193-11.082,6.531c-2.598-1.23-3.969-3.96-4.017-6.787
			c-0.032-1.891-1.59-3.438-3.504-3.469l-40.268-0.638c-8.452-0.134-15.274,6.61-15.274,15.063v247.43
			c0,8.688,7.013,16.397,15.702,17.222l103.79,9.849C359.533,423.893,366.82,417.51,366.82,408.783z" class="color1f233a svgShape"></path><polygon fill="#ffffff" points="326.985 197.496 307.391 196.846 307.391 162.595 326.985 163.059" class="colore8cd58 svgShape"></polygon><polygon fill="#97c4ee" points="268.834 223.773 249.863 222.993 249.863 194.937 268.834 195.567" class="color97c4ee svgShape"></polygon><polygon fill="#ce4d4d" points="346.793 255.802 326.985 254.831 326.985 226.164 346.793 226.978" class="colorce4d4d svgShape"></polygon><line x1="249.863" x2="249.863" y1="161.234" y2="307.162" fill="none" stroke="#e5f2fc" stroke-miterlimit="10" stroke-width=".25" class="colorStrokee5f2fc svgStroke"></line><line x1="366.82" x2="231.094" y1="198.818" y2="194.314" fill="none" stroke="#e5f2fc" stroke-miterlimit="10" stroke-width=".25" class="colorStrokee5f2fc svgStroke"></line><line x1="366.82" x2="231.094" y1="164.002" y2="160.79" fill="none" stroke="#e5f2fc" stroke-miterlimit="10" stroke-width=".25" class="colorStrokee5f2fc svgStroke"></line><line x1="366.82" x2="231.094" y1="227.801" y2="222.222" fill="none" stroke="#e5f2fc" stroke-miterlimit="10" stroke-width=".25" class="colorStrokee5f2fc svgStroke"></line><line x1="366.82" x2="231.094" y1="256.784" y2="250.129" fill="none" stroke="#e5f2fc" stroke-miterlimit="10" stroke-width=".25" class="colorStrokee5f2fc svgStroke"></line><line x1="366.82" x2="231.094" y1="285.767" y2="278.037" fill="none" stroke="#e5f2fc" stroke-miterlimit="10" stroke-width=".25" class="colorStrokee5f2fc svgStroke"></line><line x1="366.82" x2="231.094" y1="314.75" y2="305.945" fill="none" stroke="#e5f2fc" stroke-miterlimit="10" stroke-width=".25" class="colorStrokee5f2fc svgStroke"></line><line x1="268.834" x2="268.834" y1="161.683" y2="308.393" fill="none" stroke="#e5f2fc" stroke-miterlimit="10" stroke-width=".25" class="colorStrokee5f2fc svgStroke"></line><line x1="288.009" x2="288.009" y1="162.137" y2="309.637" fill="none" stroke="#e5f2fc" stroke-miterlimit="10" stroke-width=".25" class="colorStrokee5f2fc svgStroke"></line><line x1="307.391" x2="307.391" y1="162.595" y2="310.894" fill="none" stroke="#e5f2fc" stroke-miterlimit="10" stroke-width=".25" class="colorStrokee5f2fc svgStroke"></line><line x1="326.985" x2="326.985" y1="163.059" y2="312.165" fill="none" stroke="#e5f2fc" stroke-miterlimit="10" stroke-width=".25" class="colorStrokee5f2fc svgStroke"></line><line x1="346.793" x2="346.793" y1="163.528" y2="313.451" fill="none" stroke="#e5f2fc" stroke-miterlimit="10" stroke-width=".25" class="colorStrokee5f2fc svgStroke"></line><g><text fill="#97c4ee" font-family="BloggerSans-Medium" font-size="7.215" transform="matrix(.9573 .0541 0 1 243.442 168.567)" svgjs:data="{&quot;leading&quot;:&quot;1.3&quot;}">1</text><text fill="#97c4ee" font-family="BloggerSans-Medium" font-size="7.215" transform="matrix(.9573 .0541 0 1 262.824 169.106)" svgjs:data="{&quot;leading&quot;:&quot;1.3&quot;}">2</text><text fill="#97c4ee" font-family="BloggerSans-Medium" font-size="7.215" transform="matrix(.9573 .0541 0 1 282.33 169.66)" svgjs:data="{&quot;leading&quot;:&quot;1.3&quot;}">3</text><text fill="#97c4ee" font-family="BloggerSans-Medium" font-size="7.215" transform="matrix(.9573 .0541 0 1 301.624 170.054)" svgjs:data="{&quot;leading&quot;:&quot;1.3&quot;}">4</text><text fill="#97c4ee" font-family="BloggerSans-Medium" font-size="7.215" transform="matrix(.9573 .0541 0 1 321.152 171.157)" svgjs:data="{&quot;leading&quot;:&quot;1.3&quot;}">5</text><text fill="#97c4ee" font-family="BloggerSans-Medium" font-size="7.215" transform="matrix(.9573 .0541 0 1 340.445 172.247)" svgjs:data="{&quot;leading&quot;:&quot;1.3&quot;}">6</text><text fill="#97c4ee" font-family="BloggerSans-Medium" font-size="7.215" transform="matrix(.9573 .0541 0 1 359.993 173.351)" svgjs:data="{&quot;leading&quot;:&quot;1.3&quot;}">7</text><text fill="#97c4ee" font-family="BloggerSans-Medium" font-size="7.215" transform="matrix(.9573 .0541 0 1 243.442 201.666)" svgjs:data="{&quot;leading&quot;:&quot;1.3&quot;}">8</text><text fill="#1f233a" font-family="BloggerSans-Medium" font-size="7.215" transform="matrix(.9573 .0541 0 1 262.824 202.76)" svgjs:data="{&quot;leading&quot;:&quot;1.3&quot;}">9</text><text fill="#97c4ee" font-family="BloggerSans-Medium" font-size="7.215" transform="matrix(.9573 .0541 0 1 280.56 203.762)" svgjs:data="{&quot;leading&quot;:&quot;1.3&quot;}">10</text><text fill="#97c4ee" font-family="BloggerSans-Medium" font-size="7.215" transform="matrix(.9573 .0541 0 1 299.852 204.852)" svgjs:data="{&quot;leading&quot;:&quot;1.3&quot;}">11</text><text fill="#97c4ee" font-family="BloggerSans-Medium" font-size="7.215" transform="matrix(.9573 .0541 0 1 319.38 205.955)" svgjs:data="{&quot;leading&quot;:&quot;1.3&quot;}">12</text><text fill="#97c4ee" font-family="BloggerSans-Medium" font-size="7.215" transform="matrix(.9573 .0541 0 1 338.673 207.045)" svgjs:data="{&quot;leading&quot;:&quot;1.3&quot;}">13</text><text fill="#97c4ee" font-family="BloggerSans-Medium" font-size="7.215" transform="matrix(.9573 .0541 0 1 358.221 208.15)" svgjs:data="{&quot;leading&quot;:&quot;1.3&quot;}">14</text><text fill="#97c4ee" font-family="BloggerSans-Medium" font-size="7.215" transform="matrix(.9573 .0541 0 1 241.67 230.416)" svgjs:data="{&quot;leading&quot;:&quot;1.3&quot;}">15</text><text fill="#97c4ee" font-family="BloggerSans-Medium" font-size="7.215" transform="matrix(.9573 .0541 0 1 261.053 231.51)" svgjs:data="{&quot;leading&quot;:&quot;1.3&quot;}">16</text><text fill="#97c4ee" font-family="BloggerSans-Medium" font-size="7.215" transform="matrix(.9573 .0541 0 1 280.56 232.613)" svgjs:data="{&quot;leading&quot;:&quot;1.3&quot;}">17</text><text fill="#97c4ee" font-family="BloggerSans-Medium" font-size="7.215" transform="matrix(.9573 .0541 0 1 299.852 233.703)" svgjs:data="{&quot;leading&quot;:&quot;1.3&quot;}">18</text><text fill="#97c4ee" font-family="BloggerSans-Medium" font-size="7.215" transform="matrix(.9573 .0541 0 1 319.38 234.806)" svgjs:data="{&quot;leading&quot;:&quot;1.3&quot;}">19</text><text fill="#97c4ee" font-family="BloggerSans-Medium" font-size="7.215" transform="matrix(.9573 .0541 0 1 338.673 235.896)" svgjs:data="{&quot;leading&quot;:&quot;1.3&quot;}">20</text><text fill="#97c4ee" font-family="BloggerSans-Medium" font-size="7.215" transform="matrix(.9573 .0541 0 1 358.221 237)" svgjs:data="{&quot;leading&quot;:&quot;1.3&quot;}">21</text><text fill="#97c4ee" font-family="BloggerSans-Medium" font-size="7.215" transform="matrix(.9573 .0541 0 1 241.67 259.183)" svgjs:data="{&quot;leading&quot;:&quot;1.3&quot;}">22</text><text fill="#97c4ee" font-family="BloggerSans-Medium" font-size="7.215" transform="matrix(.9573 .0541 0 1 261.053 260.278)" svgjs:data="{&quot;leading&quot;:&quot;1.3&quot;}">23</text><text fill="#97c4ee" font-family="BloggerSans-Medium" font-size="7.215" transform="matrix(.9573 .0541 0 1 280.56 261.38)" svgjs:data="{&quot;leading&quot;:&quot;1.3&quot;}">24</text><text fill="#97c4ee" font-family="BloggerSans-Medium" font-size="7.215" transform="matrix(.9573 .0541 0 1 241.67 288.338)" svgjs:data="{&quot;leading&quot;:&quot;1.3&quot;}">29</text><text fill="#97c4ee" font-family="BloggerSans-Medium" font-size="7.215" transform="matrix(.9573 .0541 0 1 261.053 289.433)" svgjs:data="{&quot;leading&quot;:&quot;1.3&quot;}">30</text><text fill="#97c4ee" font-family="BloggerSans-Medium" font-size="7.215" transform="matrix(.9573 .0541 0 1 299.852 262.47)" svgjs:data="{&quot;leading&quot;:&quot;1.3&quot;}">25</text><text fill="#97c4ee" font-family="BloggerSans-Medium" font-size="7.215" transform="matrix(.9573 .0541 0 1 319.38 263.573)" svgjs:data="{&quot;leading&quot;:&quot;1.3&quot;}">26</text><text fill="#97c4ee" font-family="BloggerSans-Medium" font-size="7.215" transform="matrix(.9573 .0541 0 1 338.673 264.663)" svgjs:data="{&quot;leading&quot;:&quot;1.3&quot;}">27</text><text fill="#97c4ee" font-family="BloggerSans-Medium" font-size="7.215" transform="matrix(.9573 .0541 0 1 358.221 265.767)" svgjs:data="{&quot;leading&quot;:&quot;1.3&quot;}">28</text></g><g><path fill="#1f233a" d="M301.009,139.456c0,1.885-1.494,3.386-3.335,3.352c-1.839-0.033-3.328-1.586-3.328-3.467
				c0-1.881,1.489-3.382,3.328-3.352C299.515,136.018,301.009,137.571,301.009,139.456z" class="color1f233a svgShape"></path><path fill="#282e49" d="M300.254,139.443c0,1.458-1.155,2.62-2.58,2.594c-1.423-0.026-2.576-1.227-2.576-2.683
				c0-1.456,1.153-2.618,2.576-2.594C299.098,136.783,300.254,137.984,300.254,139.443z" class="color282e49 svgShape"></path><path fill="#79add8" d="M298.302,139.409c0,0.355-0.281,0.638-0.628,0.632c-0.347-0.006-0.628-0.299-0.628-0.654
				c0-0.355,0.281-0.638,0.628-0.632C298.021,138.761,298.302,139.054,298.302,139.409z" class="color79add8 svgShape"></path></g><path fill="#1f233a" d="M305.011,130.868l-14.208-0.211c-0.386-0.006-0.699,0.311-0.699,0.706v0.497
			c0,0.396,0.313,0.722,0.699,0.727l14.208,0.219c0.389,0.006,0.705-0.311,0.705-0.709v-0.499
			C305.716,131.201,305.4,130.874,305.011,130.868z" class="color1f233a svgShape"></path><path fill="#79add8" d="M374.789 230.178c0-1.097-.521-2.149-1.402-2.835l0 0v45.861l0 0c.881-.602 1.402-1.606 1.402-2.703V230.178zM374.789 188.168c0-1.097-.521-2.143-1.402-2.819l0 0v20.533l0 0c.881-.619 1.402-1.632 1.402-2.729V188.168z" class="color79add8 svgShape"></path><text fill="#fff" font-family="Lato-Bold" font-size="9.019" transform="matrix(.9619 .0302 .025 .9997 287.538 156.821)" svgjs:data="{&quot;leading&quot;:&quot;1.3&quot;}">JUNE</text><g><path fill="#ce4d4d" d="M324.918 154.896l-1.64 1.63c-.156.155-.243.367-.243.591l0 0c0 .751.894 1.148 1.418.628l2.817-2.799c.325-.323.325-.858 0-1.194l-2.817-2.919c-.523-.542-1.418-.184-1.418.568l0 0c0 .224.087.44.243.601l1.64 1.7C325.243 154.039 325.243 154.574 324.918 154.896zM270.837 152.562l1.592-1.609c.151-.153.236-.363.236-.583l0 0c0-.741-.869-1.13-1.377-.616l-2.73 2.76c-.314.318-.314.844 0 1.175l2.73 2.876c.508.535 1.377.183 1.377-.558l0 0c0-.221-.085-.434-.236-.593l-1.592-1.676C270.522 153.406 270.522 152.88 270.837 152.562z" class="colorce4d4d svgShape"></path></g><g opacity=".06"><path fill="#009689" d="M349.275,135.189l-40.398-0.64c-1.946-0.031-3.626,1.458-3.611,3.373
				c0.04,5.278-5.461,9.194-11.086,6.532c-2.599-1.23-3.971-3.961-4.019-6.788c-0.032-1.891-1.59-3.439-3.506-3.469l-34.788-0.551
				l-20.775,21.205v130.103L366.81,151.438C366.193,142.509,358.57,135.337,349.275,135.189z" class="colorfff svgShape"></path><polygon fill="#009689" points="231.094 304.213 231.094 333.846 366.87 202.155 366.87 171.381" class="colorfff svgShape"></polygon><path fill="#009689" d="M231.094,396.099c0,8.69,7.015,16.4,15.708,17.225l54.102,5.134l65.967-61.185V222.158
				L231.094,353.106V396.099z" class="colorfff svgShape"></path><polygon fill="#009689" points="350.343 423.151 366.87 408.051 366.87 377.276 320.218 420.292" class="colorfff svgShape"></polygon></g><g><polygon fill="#ffffff" points="316.402 323.81 274.35 320.938 274.35 323.785 316.402 326.69" class="colore8cd58 svgShape"></polygon><polygon fill="#97c4ee" points="306.016 328 274.35 325.795 274.35 327.879 306.016 330.103" class="color97c4ee svgShape"></polygon><polygon fill="#97c4ee" points="338.363 334.157 274.35 329.63 274.35 331.714 338.363 336.279" class="color97c4ee svgShape"></polygon><polygon fill="#97c4ee" points="294.252 334.894 274.35 333.465 274.35 335.549 294.252 336.99" class="color97c4ee svgShape"></polygon><polygon fill="#97c4ee" points="327.709 337.296 298.446 335.195 298.446 337.293 327.709 339.412" class="color97c4ee svgShape"></polygon><polygon fill="#97c4ee" points="350.576 338.938 331.985 337.603 331.985 339.721 350.576 341.067" class="color97c4ee svgShape"></polygon><polygon fill="#97c4ee" points="317.176 340.421 274.35 337.299 274.35 339.384 317.176 342.53" class="color97c4ee svgShape"></polygon><polygon fill="#97c4ee" points="333.835 341.635 321.578 340.742 321.578 342.854 333.835 343.754" class="color97c4ee svgShape"></polygon><polygon fill="#97c4ee" points="306.016 343.476 274.35 341.134 274.35 343.219 306.016 345.579" class="color97c4ee svgShape"></polygon><polygon fill="#97c4ee" points="350.576 331.104 310.895 328.34 310.895 330.446 350.576 333.233" class="color97c4ee svgShape"></polygon><polygon fill="#ffffff" points="335.213 325.095 320.236 324.072 320.236 326.955 335.213 327.99" class="colore8cd58 svgShape"></polygon><path fill="#ce4d4d" d="M269.026,331.698c0-6.143-4.82-11.453-10.749-11.858c-5.909-0.404-10.684,4.221-10.684,10.327
				c0,6.106,4.775,11.413,10.684,11.853C264.206,342.463,269.026,337.842,269.026,331.698z" class="colorce4d4d svgShape"></path></g><g><polygon fill="#ce4d4d" points="316.402 356.271 274.35 353.02 274.35 355.867 316.402 359.151" class="colorce4d4d svgShape"></polygon><polygon fill="#e5f2fc" points="306.016 360.367 274.35 357.877 274.35 359.961 306.016 362.47" class="colore5f2fc svgShape"></polygon><polygon fill="#e5f2fc" points="338.363 366.815 274.35 361.712 274.35 363.796 338.363 368.937" class="colore5f2fc svgShape"></polygon><polygon fill="#e5f2fc" points="294.252 367.155 274.35 365.547 274.35 367.631 294.252 369.251" class="colore5f2fc svgShape"></polygon><polygon fill="#e5f2fc" points="327.709 369.858 298.446 367.494 298.446 369.592 327.709 371.974" class="colore5f2fc svgShape"></polygon><polygon fill="#e5f2fc" points="350.576 371.706 331.985 370.204 331.985 372.322 350.576 373.835" class="colore5f2fc svgShape"></polygon><polygon fill="#e5f2fc" points="317.176 372.888 274.35 369.382 274.35 371.466 317.176 374.998" class="colore5f2fc svgShape"></polygon><polygon fill="#e5f2fc" points="333.835 374.252 321.578 373.249 321.578 375.361 333.835 376.371" class="colore5f2fc svgShape"></polygon><polygon fill="#e5f2fc" points="306.016 375.843 274.35 373.217 274.35 375.301 306.016 377.946" class="colore5f2fc svgShape"></polygon><polygon fill="#e5f2fc" points="350.576 363.872 310.895 360.751 310.895 362.857 350.576 366.001" class="colore5f2fc svgShape"></polygon><polygon fill="#ce4d4d" points="335.213 357.724 320.236 356.567 320.236 359.45 335.213 360.62" class="colorce4d4d svgShape"></polygon><path fill="#ffffff" d="M269.026,363.733c0-6.143-4.82-11.496-10.749-11.954c-5.909-0.457-10.684,4.124-10.684,10.231
				s4.775,11.456,10.684,11.949C264.206,374.454,269.026,369.876,269.026,363.733z" class="colore8cd58 svgShape"></path></g><g><polygon fill="#e5f2fc" points="316.402 388.731 274.35 385.102 274.35 387.949 316.402 391.611" class="colore5f2fc svgShape"></polygon><polygon fill="#97c4ee" points="306.016 392.734 274.35 389.959 274.35 392.043 306.016 394.837" class="color97c4ee svgShape"></polygon><polygon fill="#97c4ee" points="338.363 399.473 274.35 393.794 274.35 395.878 338.363 401.595" class="color97c4ee svgShape"></polygon><polygon fill="#97c4ee" points="294.252 399.416 274.35 397.629 274.35 399.713 294.252 401.512" class="color97c4ee svgShape"></polygon><polygon fill="#97c4ee" points="327.709 402.42 298.446 399.793 298.446 401.891 327.709 404.536" class="color97c4ee svgShape"></polygon><polygon fill="#97c4ee" points="350.576 404.474 331.985 402.804 331.985 404.923 350.576 406.603" class="color97c4ee svgShape"></polygon><polygon fill="#97c4ee" points="317.176 405.356 274.35 401.464 274.35 403.548 317.176 407.465" class="color97c4ee svgShape"></polygon><polygon fill="#97c4ee" points="333.835 406.869 321.578 405.756 321.578 407.868 333.835 408.989" class="color97c4ee svgShape"></polygon><polygon fill="#97c4ee" points="306.016 408.21 274.35 405.299 274.35 407.383 306.016 410.313" class="color97c4ee svgShape"></polygon><polygon fill="#97c4ee" points="350.576 396.64 310.895 393.162 310.895 395.268 350.576 398.769" class="color97c4ee svgShape"></polygon><polygon fill="#e5f2fc" points="335.213 390.354 320.236 389.062 320.236 391.945 335.213 393.249" class="colore5f2fc svgShape"></polygon><path fill="#97c4ee" d="M269.026,395.767c0-6.143-4.82-11.54-10.749-12.051c-5.909-0.51-10.684,4.028-10.684,10.135
				s4.775,11.499,10.684,12.045C264.206,406.444,269.026,401.91,269.026,395.767z" class="color97c4ee svgShape"></path></g></g><g><path fill="#1f233a" d="M217.108,188.271c-0.426-0.355-1.098-0.206-1.794,0.118c1.064-2.567,1.153-5.268-1.054-7.265
			c-2.029-1.836-4.805-1.529-7.193-0.654c-0.891,0.327-1.714,0.722-2.518,1.155c0.004-0.259-0.038-0.515-0.188-0.758
			c-0.745-1.206-2.289-0.165-2.995,0.507c-0.542,0.516-0.978,1.125-1.439,1.709c-0.262,0.332-0.576,0.646-0.974,0.788
			c-0.461,0.165-0.956,0.081-1.433,0.104c-0.443,0.022-0.89,0.058-1.331,0.105c-0.969,0.104-1.927,0.308-2.834,0.669
			c-1.461,0.581-2.848,1.497-3.76,2.798c-0.449,0.641-0.776,1.397-0.917,2.178c-0.065,0.36-0.085,0.727-0.071,1.093
			c-0.077-0.092-0.118-0.189-0.165-0.323c-0.113-0.318-0.298-0.6-0.499-0.868c-0.339-0.452-1.062-0.44-1.239,0.162
			c-0.178,0.604-0.194,1.195,0.024,1.726c-0.328,0.022-0.649,0.094-0.952,0.27c-1.047,0.609-0.357,2.314,0.831,1.971
			c0.239-0.069,0.462-0.151,0.687-0.227c-0.253,0.169-0.463,0.366-0.664,0.605c-0.555,0.66-0.905,1.472-1.125,2.299
			c-0.288,1.086-0.368,2.236-0.269,3.354c0.532,5.986,2.788,12.075,7.242,16.252c0.641,0.601,1.286,1.205,2.023,1.683
			c0.562,0.364,1.189,0.735,1.861,0.814c0.41,0.048,0.671-0.053,1.015,0.154c0.289,0.174,0.543,0.586,0.811,0.811
			c1.043,0.875,2.337,1.389,3.692,1.502c2.872,0.238,5.701-1.231,7.547-3.368c6.228-7.208,3.719-14.773,0.83-22.591
			c1.001-0.813,2.133-1.986,3.132-3.334c1.503-0.266,2.833-0.812,3.63-1.773C217.413,189.462,217.672,188.741,217.108,188.271z" class="color1f233a svgShape"></path><path fill="#d3aa8c" d="M215.429,198.938c-0.15-2.133-0.3-4.284-0.833-6.363c-0.11-0.428-0.341-2.218-0.779-2.407
			c-0.377-0.163-0.884,0.251-1.195,0.413c-1.764,0.922-4.401-0.035-5.396,2.174c-0.582,1.291-0.28,2.821-0.073,4.163
			c0.299,1.941,0.871,3.852,1.074,5.803c0.062,0.58-0.014,1.309-0.555,1.527c-0.532,0.215-1.106-0.258-1.352-0.776
			c-0.34-0.717-0.395-1.28-1.025-1.783c-0.52-0.415-1.07-0.899-1.777-0.875c-3.152,0.105-1.853,4.964-1.154,6.536
			c0.436,0.983,1.02,3.231,2.17,3.548c0.54,0.149,1.13-0.082,1.212,0.692c0.096,0.901-0.907,1.837-1.498,2.401
			c-4.779,4.558-11.026,2.79-11.026,2.79c0.783,0.665,1.238,2.419,1.431,3.435c0.602,3.167,0.075,6.511-0.378,9.658
			c-0.089,0.619,0.563,1.264,1.162,1.248c3.181-0.083,7.979,0.248,8.189-3.519c1.495-2.774,2.447-5.717,5.774-6.966
			c1.069-0.401,2.059,0.069,3.23-0.512c2.388-1.186,3.798-4.219,4.113-6.709c0.442-3.501-0.415-6.865-0.915-10.301
			C215.626,201.742,215.528,200.341,215.429,198.938z" class="colord3aa8c svgShape"></path><path fill="#c69777" d="M206.084 223.206c.71-.96 1.603-1.775 2.838-2.343-.992-.178-2.166-.401-2.587-.609-3.053-1.507-4.129-3.736-4.129-3.736 1.199-.636 2.848-1.966 3.425-2.779.422-.595.348-1.458.074-2.325.015.054.031.107.038.176.096.901-.907 1.837-1.498 2.401-4.779 4.558-11.026 2.79-11.026 2.79.783.665 1.238 2.419 1.431 3.435.24 1.26.296 2.549.254 3.841C198.676 224.105 202.458 223.965 206.084 223.206zM214.064 190.482c-.075-.154-.156-.275-.248-.314-.377-.163-.884.251-1.195.413-1.764.922-4.401-.035-5.397 2.174-.582 1.291-.28 2.821-.073 4.163.299 1.941.871 3.852 1.074 5.803.041.382.006.817-.166 1.139.255-.364.317-.87.301-1.331-.038-1.091-.322-2.153-.429-3.237-.076-.767-.104-1.538-.103-2.308.001-.792.011-1.547.27-2.305.298-.873.815-1.689 1.56-2.246.592-.443 1.31-.681 2.03-.813.648-.118 1.387-.083 1.936-.504C213.836 190.954 213.969 190.727 214.064 190.482zM175.717 261.817c.373.684-1.238 14.128-1.036 18.913.201 4.785 3.174 23.941 2.673 28.484-.501 4.543-2.202 8.326 1.474 9.102 3.676.776 4.025-.233 5.877-2.161 1.852-1.928 1.651-56.661 1.651-56.661L175.717 261.817z" class="colorc69777 svgShape"></path><polygon fill="#d3aa8c" points="182.501 420.342 183.238 412.871 195.044 412.38 194.398 421.141" class="colord3aa8c svgShape"></polygon><path fill="#1f233a" d="M207.174,423.78c-0.543-0.514-1.195-0.91-1.895-1.185c-1.365-0.537-2.75-0.987-4.108-1.538
			c-1.485-0.603-2.966-1.222-4.475-1.742c-0.457-0.158-0.916-0.307-1.378-0.444c-0.265-0.079-0.908-0.419-1.155-0.272
			c-3.094,1.841-6.734,2.63-10.137,1.435c-0.036-0.013-0.073-0.026-0.109-0.039c-0.453-0.165-0.889-0.367-1.287-0.671
			c-0.193-0.148-0.459,0.003-0.519,0.242c-1.066,4.24-2.946,9.098,1.727,9.981c4.241,0.801,8.795,0.266,13.046-0.156
			c3.498-0.347,7.988-0.026,11.288-1.366c0.286-0.116,0.517-0.401,0.51-0.767C208.656,425.781,208.062,424.621,207.174,423.78z" class="color1f233a svgShape"></path><path fill="#009689" d="M188.491,428.377c-3.675,0.388-6.072-0.323-7.442-0.988c0.354,1.065,1.174,1.852,2.79,2.158
				c4.241,0.801,8.795,0.266,13.046-0.156c3.498-0.347,7.988-0.026,11.288-1.366c0.286-0.116,0.517-0.401,0.51-0.767
				c-0.006-0.305-0.049-0.588-0.101-0.865c-0.995,0.489-2.702,0.817-4.628,1.076C201.357,427.818,194.826,427.708,188.491,428.377z" class="colorfff svgShape"></path><polygon fill="#d3aa8c" points="211.306 420.342 210.548 413.079 222.354 412.587 223.203 421.141" class="colord3aa8c svgShape"></polygon><path fill="#1f233a" d="M235.979,423.78c-0.543-0.514-1.195-0.91-1.895-1.185c-1.365-0.537-2.75-0.987-4.108-1.538
			c-1.485-0.603-2.966-1.222-4.475-1.742c-0.457-0.158-0.916-0.307-1.378-0.444c-0.265-0.079-0.908-0.419-1.155-0.272
			c-3.094,1.841-6.734,2.63-10.137,1.435c-0.036-0.013-0.073-0.026-0.109-0.039c-0.453-0.165-0.889-0.367-1.287-0.671
			c-0.193-0.148-0.459,0.003-0.519,0.242c-1.066,4.24-2.946,9.098,1.727,9.981c4.241,0.801,8.795,0.266,13.046-0.156
			c3.498-0.347,7.988-0.026,11.288-1.366c0.286-0.116,0.517-0.401,0.51-0.767C237.461,425.781,236.867,424.621,235.979,423.78z" class="color1f233a svgShape"></path><path fill="#009689" d="M217.296,428.377c-3.675,0.388-6.072-0.323-7.443-0.988c0.354,1.065,1.174,1.852,2.79,2.158
				c4.241,0.801,8.795,0.266,13.046-0.156c3.498-0.347,7.988-0.026,11.288-1.366c0.286-0.116,0.517-0.401,0.51-0.767
				c-0.006-0.305-0.05-0.588-0.101-0.865c-0.995,0.489-2.702,0.817-4.628,1.076C230.162,427.818,223.631,427.708,217.296,428.377z" class="colorfff svgShape"></path><path fill="#97c4ee" d="M195.194,416.625c2.113-13.983,6.292-42.077,8.645-60.897l6.893,60.897h12.171l-0.177-108.776
			h-32.66h-8.836l1.016,108.776H195.194z" class="color97c4ee svgShape"></path><path fill="#77add8" d="M211.096 408.695c-1.288-2.873-2.427-12.568-2.876-14.268l2.512 22.198h12.171l-.005-3.343c-1.743-.072-3.488-.14-5.223-.281C214.882 412.774 212.272 411.319 211.096 408.695zM188.655 325.185c-3.518 0-5.259-.87-5.357-.92-.491-.253-.684-.856-.431-1.347.251-.488.85-.684 1.339-.435.051.024 2.828 1.331 8.633.309.544-.098 1.063.267 1.159.811.096.544-.267 1.063-.811 1.158C191.439 325.071 189.93 325.185 188.655 325.185zM207.53 325.894c-3.098 0-4.75-.489-4.857-.522-.528-.162-.825-.721-.663-1.249.162-.527.719-.824 1.246-.664.054.017 3.891 1.112 10.991-.257.543-.108 1.066.249 1.171.792.104.542-.25 1.066-.792 1.171C211.757 325.718 209.385 325.894 207.53 325.894zM201.001 339.394c-.032-.117-.152-.259-.288-.25-.654.057-1.671 10.429-1.793 11.309-1.646 11.792-1.433 23.942-3.472 35.735-1.128 6.523-2.607 13.19-5.048 19.363-1.676 4.238-4.048 7.458-8.18 8.286l.026 2.787h12.949c.029-.195.059-.392.09-.593.026-.172.051-.342.078-.517.04-.266.082-.542.123-.817.035-.234.07-.465.106-.705.026-.174.053-.354.08-.531.048-.32.097-.641.146-.971.069-.457.138-.92.209-1.395.002-.012.003-.023.005-.035.057-.382.116-.776.175-1.169.034-.224.066-.444.1-.671.032-.216.066-.439.098-.659.054-.362.108-.723.163-1.093.045-.302.091-.613.137-.92.039-.262.078-.521.117-.787.055-.366.11-.742.166-1.115.147-.992.297-2.005.45-3.039.269-1.819.545-3.695.826-5.617.022-.153.045-.308.068-.462.076-.522.153-1.045.23-1.573.028-.194.057-.391.085-.586.075-.518.151-1.036.227-1.559.019-.129.038-.259.056-.389.085-.583.169-1.168.254-1.755.02-.135.039-.271.059-.407.08-.553.16-1.108.24-1.664.031-.216.062-.433.093-.649.071-.495.143-.991.214-1.489.029-.203.058-.407.087-.61.077-.539.154-1.078.231-1.618.023-.162.046-.324.069-.486.082-.577.164-1.155.246-1.733.018-.124.035-.248.053-.372.081-.574.162-1.148.243-1.722.028-.199.056-.399.084-.598.071-.501.141-1.001.211-1.501.031-.224.063-.447.094-.671.072-.516.144-1.032.216-1.546.026-.188.052-.377.078-.565.074-.532.147-1.062.22-1.59.023-.17.047-.339.07-.509.079-.571.157-1.139.234-1.705.017-.127.035-.253.052-.38.077-.566.154-1.128.23-1.688.02-.143.039-.287.058-.43.073-.541.146-1.079.218-1.614.022-.16.043-.321.065-.481.07-.519.138-1.034.206-1.547.021-.16.043-.32.064-.479.069-.521.137-1.036.204-1.549.019-.147.039-.294.058-.44.069-.525.136-1.043.203-1.558.016-.127.033-.256.05-.382.068-.527.135-1.046.201-1.562.014-.113.029-.228.044-.34.069-.544.137-1.079.203-1.608.008-.065.017-.132.025-.197C203.693 354.5 201.864 342.585 201.001 339.394z" class="color77add8 svgShape"></path><path fill="#bc3f3f" d="M195.602,225.764c-0.018-0.035-0.039-0.065-0.065-0.088c-0.513-0.451-1.011-0.509-1.572-0.364
			c-3.479,0.893-6.839,2.792-8.721,4.731c-2.525,2.601-4.279,6.158-5.808,9.399c-2.708,5.741-4.721,11.972-5.551,18.277
			c-0.197,1.501-0.327,3.011-0.388,4.524c-0.081,1.998,2.756,2.15,4.154,2.14c1.574-0.011,3.179-0.354,4.758-0.487
			c1.779-0.15,3.559-0.299,5.338-0.449c0.404-0.034,0.815-0.07,1.187-0.229c0.916-0.391,1.002-1.217,0.398-1.918
			c0.193,0.224,2.43-2.516,2.601-2.772c0.782-1.17,1.378-2.457,1.853-3.779c1.891-5.263,2.123-11.082,2.129-16.62
			c0.003-2.623-0.084-5.245-0.173-7.867c-0.036-1.068-0.074-2.136-0.092-3.205C195.646,226.779,195.754,226.064,195.602,225.764z" class="colorbc3f3f svgShape"></path><path fill="#d3aa8c" d="M275.455,217.832c-0.316-0.882-0.512-1.786,0.117-2.594c0.219-0.281,0.505-0.502,0.794-0.711
			c0.679-0.491,1.392-0.936,2.132-1.331c0.46-0.245,0.943-0.481,1.289-0.871c0.346-0.39,0.522-0.986,0.268-1.442
			c-0.408-0.438-1.066-0.567-1.657-0.477c-0.591,0.089-1.136,0.366-1.668,0.638c-1.152,0.59-2.303,1.179-3.454,1.769
			c-1.846,0.945-3.693,1.891-5.525,2.862c-0.771,0.409-1.557,0.658-2.329,1.049c-0.93,0.47-1.86,0.941-2.791,1.411
			c-5.444,2.751-10.886,5.505-16.277,8.36c-2.44,1.293-4.739,2.731-7.609,2.639c-1.725-0.055-3.449-0.077-5.167-0.258
			c-2.504-0.265-5.012-0.688-7.539-0.538c-0.96,0.057-1.988,0.232-2.665,0.915c-0.599,0.604-0.804,1.488-0.948,2.327
			c-0.395,2.297-0.531,4.638-0.404,6.966c0.026,0.481,0.075,0.992,0.373,1.37c0.337,0.427,0.908,0.579,1.44,0.691
			c2.776,0.583,5.727,0.846,8.563,0.702c3.825-0.194,7.797,0.276,11.251-1.752c3.959-2.325,7.428-5.381,11.364-7.728
			c2.109-1.258,4.247-2.469,6.405-3.64c1.053-0.571,2.111-1.133,3.173-1.687c0.327-0.17,3.018-1.789,3.201-1.637
			c1.905,1.589,5.594-0.124,6.997-1.673c0.732-0.808,1.262-1.958,1.309-3.111C276.127,219.376,275.724,218.585,275.455,217.832z" class="colord3aa8c svgShape"></path><path fill="#c69777" d="M268.383,222.522c-0.307-0.31-0.816-0.372-1.192-0.154c-8.019,4.661-15.993,9.395-23.998,14.079
			c-4.393,1.187-8.994,1.704-13.484,2.388c-0.025-0.009-0.043-0.024-0.071-0.029c-2.335-0.404-3.597,0.552-4.353,2.06
			c2.341,0.389,4.763,0.563,7.112,0.444c3.825-0.194,7.797,0.276,11.251-1.752c3.959-2.325,7.428-5.381,11.364-7.728
			c2.109-1.258,4.247-2.469,6.405-3.64c1.053-0.571,2.111-1.133,3.173-1.687c0.327-0.17,3.018-1.789,3.201-1.637
			c1.905,1.589,5.594-0.124,6.997-1.673c0.054-0.059,0.097-0.132,0.148-0.195C272.923,224.11,270.631,224.791,268.383,222.522z" class="colorc69777 svgShape"></path><path fill="#bc3f3f" d="M192.968,225.777l1.604-4.029c0,0,7.155-2.07,13.76,0.21l0.971,3.395L192.968,225.777z" class="colorbc3f3f svgShape"></path><path fill="#ce4d4d" d="M234.61,227.042c-0.811-0.97-2.635-0.558-3.699-0.544c-8.712,0.113-17.165-1.994-25.828-2.382
			c-0.142-0.006-0.287-0.01-0.432-0.012c-5.153-0.269-10.65,0.076-14.559,3.271c-2.769,2.264-5.12,5.188-6.635,8.506
			c-2.026,4.437-3.474,9.434-4.162,14.297c-0.862,6.092,0.079,11.756,0.35,17.803c0.601,13.4,0.417,26.834-0.505,40.21
			c-0.223,3.238-1.391,8.001,2.073,9.101c14.068,4.467,29.313,4.978,42.708-1.54c0.353-0.172,0.728-0.373,0.915-0.775
			c0.206-0.441,0.126-0.993,0.046-1.495c-0.002-0.015-0.005-0.03-0.007-0.046c-1.238-7.865-0.965-16.103-1.158-24.053
			c-0.378-15.525,2.053-31.986-2.252-47.146c2.112,0.362,4.255,0.538,6.398,0.516c3.4-0.036,5.049-3.175,5.863-6.054
			c0.365-1.289,1.311-4.618,1.402-7.099C235.168,228.492,235.038,227.554,234.61,227.042z" class="colorce4d4d svgShape"></path><path fill="#bc3f3f" d="M223.92,315.752c0.353-0.172,0.728-0.373,0.915-0.775c0.206-0.441,0.126-0.993,0.046-1.495
			c-0.002-0.015-0.005-0.03-0.007-0.046c-0.339-2.152-0.558-4.332-0.711-6.527c-8.441,2.978-18.534,4.894-26.549,2.365
			c-4.729-1.492-9.513-5.736-11.38-10.272c-2.112-5.134-1.021-10.926-1.421-16.332c-0.732-9.916-3.613-19.3-3.299-29.347
			c0.183-5.866,0.258-11.683,3.103-16.97c2.471-4.591,6.352-8.295,10.423-11.483c-1.804,0.515-3.488,1.31-4.949,2.505
			c-2.769,2.264-5.12,5.188-6.635,8.506c-2.026,4.437-3.474,9.434-4.162,14.297c-0.862,6.092,0.079,11.756,0.35,17.803
			c0.601,13.4,0.417,26.834-0.505,40.21c-0.223,3.238-1.391,8.001,2.073,9.101C195.28,321.759,210.525,322.27,223.92,315.752z" class="colorbc3f3f svgShape"></path><g><path fill="#bc3f3f" d="M221.976 244.238c-.138-.563-.276-1.127-.431-1.687C221.666 243.118 221.786 243.69 221.976 244.238zM232.144 240.278c-.925.412-1.897.635-2.897.772-.637.087-1.277.163-1.92.179-.968.024-1.904-.204-2.844-.407-.599-.13-1.196-.266-1.792-.41-.311-.075-.621-.152-.931-.231-.269-.068-.544-.088-.788-.236.08.376.376 1.71.505 2.294 2.108.361 4.247.536 6.386.514C229.805 242.732 231.174 241.697 232.144 240.278z" class="colorbc3f3f svgShape"></path></g></g><g><path fill="#ce4d4d" d="M65.043,343.912c0.405,2.314,2.494,4.066,4.457,5.117c2.909,1.557,6.327,2.091,9.567,1.999
					c0.954-0.027,1.911-0.148,2.863-0.216c0.249-0.018,1.902-0.306,2.061-0.061c0.432,0.672,0.86,1.337,1.293,1.979
					c4.162,6.17,9.199,11.905,15.671,15.715c4.567,2.689,12.359,5.991,17.563,3.101c0.623-0.346,1.203-0.783,1.67-1.323
					c2.281-2.639,1.345-6.654,0.648-9.716c-1.089-4.788-1.527-9.674-3.926-14.052c-2.111-3.852-5.266-7.139-9.056-9.366
					c-0.266-0.157-0.536-0.307-0.81-0.451c-3.893-2.052-8.337-2.755-12.697-2.79c-4.786-0.038-9.706,0.517-14.432,1.242
					c-3.816,0.585-7.982,1.288-11.394,3.174c-0.38,0.21-0.754,0.448-1.107,0.714C65.854,340.149,64.681,341.84,65.043,343.912z" class="colorce4d4d svgShape"></path><path fill="#1f233a" d="M99.521,344.673c22.632,18.006,26.297,47.489,28.471,74.463c0.096,1.189-1.751,1.179-1.851,0
					c-2.224-26.239-4.891-56.337-26.855-74.228C99.119,344.772,99.356,344.542,99.521,344.673z" class="color1f233a svgShape"></path><path fill="#bc3f3f" d="M81.93 350.811c-.952.068-1.909.189-2.863.216-3.24.092-6.658-.442-9.567-1.999-1.964-1.051-4.053-2.803-4.457-5.117-.246-1.409.226-2.637 1.04-3.65 11.333-2.712 17.908 10.489 17.908 10.489C83.832 350.505 82.179 350.793 81.93 350.811zM71.311 374.889c-.761.175-1.502.524-2.022 1.106-2.327 2.608-.201 5.926 2.188 7.496 1.331.874 2.859 1.569 4.377 2.047 3.576 1.126 7.406 1.513 11.14 1.233 4.667-.351 9.443-2.462 13.974-.256 3.5 1.704 6.559 4.706 9.937 6.711 1.852 1.099 4.587 3.009 6.948 2.739 2.156-.247 3.315-1.763 3.396-3.864.063-1.628-.212-3.253-.709-4.8-1.434-4.459-4.572-8.302-7.868-11.543-3.255-3.2-7.509-6.369-12.299-6.253-2.026.049-4.04.375-6.005.862-3.015.748-5.883 2.239-8.883 2.886-3.138.677-6.271 1.165-9.481 1.345C74.468 374.683 72.817 374.543 71.311 374.889z" class="colorbc3f3f svgShape"></path><path fill="#1f233a" d="M99.724,377.701c7.324,2.224,14.98,8.901,18.815,15.458c4.452,7.611,6.317,17.881,6.682,26.59
					c0.051,1.22-1.855,1.314-1.896,0.091c-0.543-16.031-7.151-35.739-23.684-41.768C99.419,377.99,99.485,377.628,99.724,377.701z" class="color1f233a svgShape"></path><g><path fill="#ce4d4d" d="M125.716,371.518c-0.35,3.162-0.83,6.681-0.151,9.816c0.487,2.251,1.887,3.588,4.181,3.871
					c2.613,0.322,5.305-0.431,7.403-2.012c2.009-1.514,3.681-3.47,5.963-4.606c3.208-1.598,6.545-3.464,9.231-5.861
					c2.443-2.18,4.052-4.872,4.397-8.154c0.383-3.64-0.551-7.282-0.057-10.899c0.289-2.115,1.287-4.046,2.787-5.557
					c2.47-2.488,5.999-3.79,9.426-4.21c1.574-0.193,3.129-0.116,4.706-0.053c0.806,0.032,2.137,0.223,2.766-0.431
					c2.637-2.747-5.587-5.852-7.195-6.323c-6.249-1.833-15.444-3.061-20.46,2.206c-2.449,2.572-3.304,6.262-5.953,8.694
					c-3.777,3.468-9.165,4.621-12.516,8.644c-2.807,2.807-3.683,7.568-4.183,11.75C125.929,369.488,125.824,370.546,125.716,371.518
					z" class="colorce4d4d svgShape"></path><path fill="#1f233a" d="M128.21,385.142c1.822-11.037,7.964-19.77,14.878-28.416c0.035-0.044,0.097,0.012,0.075,0.057
					c-2.408,4.827-5.28,9.366-8.118,13.95c-3.377,5.454-4.472,10.407-5.295,16.67c-1.457,11.095-0.012,21.561,1.355,32.578
					c0.165,1.33-1.925,1.318-2.088,0C127.539,408.066,126.239,397.083,128.21,385.142z" class="color1f233a svgShape"></path></g><g><path fill="#bc3f3f" d="M156.269,389.092c2.891,0.385,5.136,0.986,7.648,2.48c1.389,0.826,2.616,1.3,4.232,0.936
					c0.081-0.018,0.154-0.11,0.147-0.193c-0.011-0.139-0.022-0.278-0.033-0.417c-0.011-0.139-0.136-0.178-0.23-0.136
					c-1.667-4.352-7.686-5.043-11.635-4.441c-0.344,0.052-0.332,0.522-0.077,0.677c-0.018,0.001-0.035,0-0.053,0.002
					C155.551,388.055,155.585,389.001,156.269,389.092z" class="colorbc3f3f svgShape"></path><path fill="#ce4d4d" d="M146.416,402.879c3.044-1.286,5.399-3.79,6.734-6.789c0.274-0.615,0.445-1.269,0.691-1.893
					c1.934-4.906,8.252-6.048,12.411-3.279c0.292,0.195,2.087,2.142,1.993,0.924c-0.097-1.263-1.609-2.813-2.453-3.667
					c-3.399-3.438-8.699-4.065-13.307-4.117c-4.576-0.051-9.381,0.978-12.692,4.354c-2.93,2.987-4.777,7.027-5.641,11.054
					C132.919,405.214,143.495,404.112,146.416,402.879z" class="colorce4d4d svgShape"></path><path fill="#1f233a" d="M145.317,392.308c0.22-0.095,0.415,0.226,0.192,0.328c-10.817,4.943-12.862,16.631-11.72,27.386
					c0.093,0.88-1.284,0.873-1.376,0C131.248,409.056,134.369,397.048,145.317,392.308z" class="color1f233a svgShape"></path></g><g><path fill="#ce4d4d" d="M432.614,343.331c-0.349-0.262-0.718-0.497-1.094-0.705c-3.37-1.863-7.484-2.557-11.253-3.135
					c-4.668-0.716-9.527-1.265-14.254-1.227c-4.306,0.035-8.695,0.728-12.541,2.755c-0.27,0.142-0.536,0.291-0.8,0.445
					c-3.743,2.199-6.859,5.446-8.944,9.251c-2.37,4.325-2.803,9.151-3.878,13.879c-0.688,3.025-1.613,6.99,0.641,9.596
					c0.461,0.534,1.035,0.965,1.65,1.307c5.14,2.854,12.835-0.408,17.347-3.063c6.393-3.763,11.367-9.427,15.478-15.521
					c0.428-0.634,0.851-1.291,1.277-1.955c0.158-0.242,1.79,0.042,2.036,0.06c0.94,0.068,1.885,0.187,2.827,0.214
					c3.2,0.091,6.576-0.437,9.449-1.975c1.94-1.038,4.003-2.769,4.402-5.054C435.315,346.159,434.157,344.488,432.614,343.331z" class="colorce4d4d svgShape"></path><path fill="#1f233a" d="M400.904,348.957c-22.354,17.784-25.973,46.904-28.12,73.546c-0.095,1.174,1.729,1.164,1.828,0
					c2.196-25.916,4.831-55.643,26.524-73.314C401.301,349.055,401.067,348.827,400.904,348.957z" class="color1f233a svgShape"></path><path fill="#bc3f3f" d="M418.279 355.02c.94.068 1.885.187 2.827.214 3.2.091 6.576-.437 9.449-1.975 1.94-1.038 4.003-2.769 4.402-5.054.243-1.392-.223-2.604-1.027-3.605-11.193-2.679-17.688 10.36-17.688 10.36C416.4 354.717 418.033 355.002 418.279 355.02zM424.131 378.512c-3.171-.178-6.265-.66-9.364-1.329-2.963-.639-5.795-2.111-8.773-2.85-1.94-.481-3.929-.803-5.931-.852-4.731-.115-8.933 3.016-12.148 6.176-3.256 3.201-6.355 6.997-7.771 11.401-.491 1.529-.763 3.133-.701 4.741.08 2.076 1.225 3.573 3.354 3.817 2.332.267 5.033-1.62 6.862-2.706 3.336-1.98 6.357-4.945 9.815-6.628 4.475-2.179 9.193-.094 13.802.253 3.688.277 7.471-.106 11.003-1.218 1.499-.472 3.009-1.158 4.323-2.021 2.36-1.55 4.46-4.827 2.161-7.403-.513-.575-1.245-.92-1.997-1.093C427.28 378.459 425.649 378.598 424.131 378.512z" class="colorbc3f3f svgShape"></path><path fill="#1f233a" d="M400.703,381.578c-7.234,2.197-14.796,8.792-18.583,15.267
					c-4.397,7.517-6.24,17.661-6.599,26.263c-0.05,1.205,1.832,1.298,1.873,0.09c0.536-15.834,7.063-35.299,23.392-41.254
					C401.005,381.863,400.939,381.506,400.703,381.578z" class="color1f233a svgShape"></path><g><path fill="#ce4d4d" d="M374.692,372.382c-0.494-4.13-1.359-8.832-4.132-11.605c-3.309-3.974-8.631-5.113-12.361-8.538
					c-2.616-2.402-3.46-6.047-5.88-8.587c-4.954-5.202-14.036-3.988-20.208-2.178c-1.588,0.466-9.71,3.532-7.106,6.245
					c0.62,0.646,1.936,0.457,2.732,0.426c1.557-0.062,3.093-0.138,4.648,0.053c3.385,0.415,6.871,1.701,9.31,4.158
					c1.481,1.492,2.467,3.4,2.753,5.488c0.489,3.573-0.434,7.17-0.056,10.765c0.341,3.241,1.93,5.9,4.343,8.053
					c2.653,2.367,5.949,4.211,9.117,5.789c2.253,1.123,3.905,3.054,5.889,4.55c2.072,1.561,4.73,2.306,7.311,1.987
					c2.266-0.28,3.648-1.599,4.129-3.823c0.67-3.097,0.197-6.572-0.149-9.695C374.926,374.512,374.821,373.467,374.692,372.382z" class="colorce4d4d svgShape"></path><path fill="#1f233a" d="M372.568,388.928c-1.8-10.901-7.866-19.526-14.695-28.066c-0.035-0.044-0.096,0.012-0.074,0.057
					c2.379,4.768,5.215,9.251,8.018,13.778c3.335,5.387,4.417,10.279,5.229,16.464c1.439,10.958,0.012,21.295-1.338,32.177
					c-0.163,1.314,1.901,1.302,2.063,0C373.231,411.57,374.515,400.722,372.568,388.928z" class="color1f233a svgShape"></path></g><g><path fill="#bc3f3f" d="M344.855,391.751c-0.017-0.001-0.035-0.001-0.052-0.002c0.253-0.154,0.264-0.617-0.076-0.669
					c-3.901-0.595-9.845,0.088-11.492,4.386c-0.093-0.041-0.217-0.003-0.227,0.135c-0.011,0.137-0.022,0.275-0.032,0.412
					c-0.006,0.082,0.066,0.173,0.145,0.191c1.595,0.359,2.808-0.109,4.18-0.925c2.482-1.476,4.699-2.069,7.554-2.45
					C345.53,392.739,345.564,391.805,344.855,391.751z" class="colorbc3f3f svgShape"></path><path fill="#ce4d4d" d="M366.699,403.074c-0.853-3.977-2.678-7.968-5.572-10.918c-3.27-3.334-8.016-4.35-12.535-4.3
					c-4.552,0.051-9.786,0.67-13.144,4.066c-0.834,0.843-2.327,2.375-2.422,3.622c-0.092,1.203,1.68-0.72,1.969-0.913
					c4.108-2.735,10.347-1.607,12.258,3.239c0.243,0.617,0.413,1.263,0.683,1.87c1.318,2.962,3.644,5.435,6.651,6.705
					C357.472,407.664,367.917,408.753,366.699,403.074z" class="colorce4d4d svgShape"></path><path fill="#1f233a" d="M355.672,396.005c-0.218-0.094-0.41,0.223-0.189,0.324c10.684,4.882,12.703,16.427,11.576,27.049
					c-0.092,0.869,1.268,0.863,1.359,0C369.568,412.547,366.485,400.687,355.672,396.005z" class="color1f233a svgShape"></path></g></g></g></svg></g></svg>